<?xml version="1.0" encoding="UTF-8"?>
<svg version="1.1" xmlns="http://www.w3.org/2000/svg" width="704" height="384">
<path d="M0 0 C1.3452903 -0.0076664 1.3452903 -0.0076664 2.71775818 -0.01548767 C5.66542336 -0.0293227 8.6128532 -0.02843176 11.56054688 -0.02612305 C13.61885667 -0.03001276 15.67716567 -0.034348 17.73547363 -0.03910828 C22.04258836 -0.04655697 26.3496211 -0.04628858 30.65673828 -0.04101562 C36.16794907 -0.03521681 41.67882425 -0.05216863 47.18997955 -0.0753603 C51.43827262 -0.0901108 55.68648505 -0.09096764 59.93479919 -0.08785057 C61.96651373 -0.08836292 63.99823288 -0.09358441 66.02992249 -0.10366249 C68.87303342 -0.1160377 71.71549278 -0.10922908 74.55859375 -0.09765625 C75.39204819 -0.10529999 76.22550262 -0.11294373 77.08421326 -0.12081909 C85.84163151 -0.04226989 92.32549388 3.44214469 98.77929688 9.2746582 C107.09063055 18.23298193 109.21066294 26.31686254 109.46679688 38.2746582 C109.50095703 39.29688477 109.53511719 40.31911133 109.5703125 41.37231445 C110.00782442 55.78342125 109.77967363 70.1860913 109.40698242 84.5949707 C109.34133389 87.1678029 109.28188663 89.74073367 109.22265625 92.3137207 C108.84242882 108.03483734 108.55948719 119.71469958 98.04492188 132.3605957 C87.74112125 142.026542 73.47358602 141.45409618 60.27929688 141.3996582 C59.03696289 141.39554932 57.79462891 141.39144043 56.51464844 141.38720703 C52.82108301 141.36951883 49.12774978 141.33721323 45.43432617 141.30072021 C43.56014973 141.28232313 41.68596203 141.26505611 39.81176758 141.24859619 C33.17566213 141.18942318 26.54016013 141.11012114 19.90454102 141.01019287 C17.667461 140.97835595 15.43030976 140.95116029 13.19311523 140.92877197 C10.00792333 140.89523426 6.82352762 140.84296397 3.63867188 140.78637695 C2.21823578 140.77677696 2.21823578 140.77677696 0.769104 140.76698303 C-10.50381377 140.52039972 -17.76638768 137.71886424 -25.86914062 129.8215332 C-35.76111655 119.10796459 -35.66517811 105.96821583 -35.58398438 92.18481445 C-35.58346459 90.43183899 -35.58398687 88.67886295 -35.585495 86.92588806 C-35.58540569 83.26544403 -35.57506217 79.60522211 -35.55688477 75.94482422 C-35.5342162 71.28048668 -35.53365508 66.61647344 -35.54040241 61.95209599 C-35.54376317 58.33586302 -35.53707258 54.71970238 -35.52727318 51.1034832 C-35.52345586 49.38489601 -35.52225836 47.66630072 -35.52385902 45.94771004 C-35.52800022 19.35853247 -35.52800022 19.35853247 -25.22070312 8.2746582 C-17.49200066 1.65761842 -9.91355052 -0.02946772 0 0 Z " fill="#FCFDFC" transform="translate(137.220703125,98.725341796875)"/>
<path d="M0 0 C3.19047433 1.63414539 5.16422178 3.66177145 7.5625 6.3125 C8.5834375 7.240625 8.5834375 7.240625 9.625 8.1875 C12.81628189 11.68761562 15.5625 15.448451 15.5625 20.3125 C16.2225 20.3125 16.8825 20.3125 17.5625 20.3125 C17.76875 19.4875 17.975 18.6625 18.1875 17.8125 C21.44186206 9.52866931 27.60957388 3.28896306 35.5625 -0.6875 C49.20982453 -1.66769458 49.20982453 -1.66769458 54.5625 2.3125 C59.35369488 7.6216619 59.67405281 10.3962255 59.5625 17.3125 C60.573125 17.374375 61.58375 17.43625 62.625 17.5 C67.15972695 18.1622725 70.2720222 20.18357021 73.5625 23.3125 C77.15745701 28.29905327 77.34706777 33.37864262 76.5625 39.3125 C73.34482135 51.0094702 63.67711722 60.73373308 55.5625 69.3125 C54.75232422 70.19421875 54.75232422 70.19421875 53.92578125 71.09375 C52.5625 72.3125 52.5625 72.3125 50.5625 72.3125 C50.0675 73.7975 50.0675 73.7975 49.5625 75.3125 C48.00390625 76.91796875 48.00390625 76.91796875 46.125 78.5 C45.50753906 79.02980469 44.89007813 79.55960937 44.25390625 80.10546875 C42.5625 81.3125 42.5625 81.3125 40.5625 81.3125 C40.5625 81.9725 40.5625 82.6325 40.5625 83.3125 C38.98963316 84.72688406 37.35110004 86.06854401 35.6875 87.375 C30.832614 91.24011569 26.25429864 95.29194643 21.75390625 99.5625 C18.33709751 102.29107454 18.33709751 102.29107454 15.5625 102.3125 C13.22265625 100.828125 13.22265625 100.828125 10.625 98.5625 C9.66464844 97.73878906 8.70429688 96.91507812 7.71484375 96.06640625 C7.20550293 95.62055176 6.69616211 95.17469727 6.17138672 94.71533203 C3.93332936 92.76390903 1.66260387 90.85223141 -0.60766602 88.93847656 C-2.23985457 87.56129556 -3.86611453 86.17735914 -5.4921875 84.79296875 C-7.37228527 83.20959729 -9.27547936 81.65299015 -11.20703125 80.1328125 C-13.4375 78.3125 -13.4375 78.3125 -15.25 76 C-17.14142514 73.67624911 -18.91574258 71.97998725 -21.1875 70.0625 C-30.18770257 62.35043051 -41.58620102 51.29843369 -42.75390625 38.97265625 C-42.92271583 33.78312308 -42.96708557 29.57026573 -40.9375 24.75 C-36.55392432 20.47601371 -32.69021466 17.3125 -26.4375 17.3125 C-26.499375 16.260625 -26.56125 15.20875 -26.625 14.125 C-26.35876904 8.71163723 -24.51388823 6.49652706 -20.9375 2.5625 C-15.41225574 -2.41021984 -6.91811364 -1.38362273 0 0 Z " fill="#29CC73" transform="translate(157.4375,120.6875)"/>
<path d="M0 0 C4.38540528 2.01685578 8.94166947 4.23631515 12.6875 7.3125 C12.6875 7.9725 12.6875 8.6325 12.6875 9.3125 C13.3475 9.3125 14.0075 9.3125 14.6875 9.3125 C15.1825 10.7975 15.1825 10.7975 15.6875 12.3125 C17.01690025 13.31772273 18.35058355 14.3172954 19.6875 15.3125 C29.71552948 29.04273803 29.33314755 44.33933496 29.4375 60.5625 C29.46570013 62.77215841 29.4956331 64.98179543 29.52734375 67.19140625 C29.6007265 72.5650203 29.65265019 77.93850508 29.6875 83.3125 C25.65056126 81.79985131 23.14058139 80.16715903 20 77.1875 C15.0853005 72.63169808 9.95059221 68.45559162 4.6875 64.3125 C1.79062282 62.03105381 -0.88783421 59.85041 -3.1875 56.9375 C-5.05201203 54.63427926 -6.81442723 52.96067818 -9.0625 51.0625 C-18.06270257 43.35043051 -29.46120102 32.29843369 -30.62890625 19.97265625 C-30.79771583 14.78312308 -30.84208557 10.57026573 -28.8125 5.75 C-20.38786697 -2.4640172 -11.28686827 -4.24344508 0 0 Z " fill="#028DBA" transform="translate(145.3125,139.6875)"/>
<path d="M0 0 C0.91187611 2.73562834 1.14730259 4.46145475 1.20532227 7.2878418 C1.2352401 8.57884041 1.2352401 8.57884041 1.26576233 9.8959198 C1.28247482 10.82100845 1.29918732 11.74609711 1.31640625 12.69921875 C1.33718735 13.64940384 1.35796844 14.59958893 1.37937927 15.5785675 C1.44478052 18.61480456 1.50371604 21.65112831 1.5625 24.6875 C1.60569417 26.74545169 1.64930876 28.80339459 1.69335938 30.86132812 C1.80045231 35.90746316 1.90174646 40.95368543 2 46 C3.32 46 4.64 46 6 46 C5.99476318 45.1435791 5.98952637 44.2871582 5.98413086 43.40478516 C5.96693179 40.1805039 5.95447417 36.95624629 5.94506836 33.73193359 C5.94008707 32.34520694 5.93329961 30.95848541 5.92456055 29.57177734 C5.87601458 21.66164008 5.96164449 13.85497801 7 6 C9.475 5.505 9.475 5.505 12 5 C12.05607422 5.92232422 12.05607422 5.92232422 12.11328125 6.86328125 C12.17902344 7.67152344 12.24476563 8.47976562 12.3125 9.3125 C12.37050781 10.11300781 12.42851562 10.91351563 12.48828125 11.73828125 C13.09064532 14.40063848 13.89641191 15.31193548 16 17 C16.66 17.33 17.32 17.66 18 18 C18 18.66 18 19.32 18 20 C16.35 20.33 14.7 20.66 13 21 C13 28.92 13 36.84 13 45 C15.31 45.33 17.62 45.66 20 46 C20.81393517 43.14152758 21.12830714 40.59761568 21.1328125 37.62890625 C21.13410156 36.80712891 21.13539063 35.98535156 21.13671875 35.13867188 C21.13285156 34.28853516 21.12898438 33.43839844 21.125 32.5625 C21.12886719 31.71623047 21.13273437 30.86996094 21.13671875 29.99804688 C21.13019384 25.83189492 20.86618734 22.08682938 20 18 C20.33 17.34 20.66 16.68 21 16 C21.2275015 14.12943209 21.40962811 12.25314042 21.5625 10.375 C21.68818359 8.87066406 21.68818359 8.87066406 21.81640625 7.3359375 C21.87699219 6.56507813 21.93757813 5.79421875 22 5 C23.65614657 4.61781233 25.32457024 4.28604898 27 4 C28.81115956 5.81115956 28.38199448 8.61278227 28.5625 11.0625 C28.64628906 12.16722656 28.73007812 13.27195313 28.81640625 14.41015625 C28.87699219 15.26480469 28.93757813 16.11945313 29 17 C29.88042969 16.88140625 30.76085937 16.7628125 31.66796875 16.640625 C33.41013672 16.44726562 33.41013672 16.44726562 35.1875 16.25 C36.33605469 16.11078125 37.48460937 15.9715625 38.66796875 15.828125 C42.83998737 16.04332877 44.19252057 16.94817511 47 20 C49.85043585 25.51255461 49.25893624 31.69671835 49.1875 37.75 C49.1865332 39.32974609 49.1865332 39.32974609 49.18554688 40.94140625 C49.14061993 48.71876015 49.14061993 48.71876015 48 51 C46.35 51 44.7 51 43 51 C41.354289 47.70857801 41.99024231 44.04966179 42.0625 40.4375 C42.13932209 33.9754821 41.84974501 28.24288942 40 22 C37.69 22 35.38 22 33 22 C33 22.66 33 23.32 33 24 C31.68 24.33 30.36 24.66 29 25 C28.98541748 25.68102783 28.97083496 26.36205566 28.95581055 27.0637207 C28.88137304 30.14722215 28.78469917 33.22963567 28.6875 36.3125 C28.66494141 37.38435547 28.64238281 38.45621094 28.61914062 39.56054688 C28.5659668 41.10258789 28.5659668 41.10258789 28.51171875 42.67578125 C28.48553467 43.62364502 28.45935059 44.57150879 28.43237305 45.5480957 C27.93070961 48.39293246 27.32250574 49.32458623 25 51 C22.14453125 51.328125 22.14453125 51.328125 18.8125 51.25 C17.65105469 51.22550781 16.48960937 51.20101562 15.29296875 51.17578125 C12.69593776 51.0371497 10.19385498 50.81601498 7.625 50.4375 C3.95433816 49.83438332 3.95433816 49.83438332 0.125 50.5625 C-0.90625 50.706875 -1.9375 50.85125 -3 51 C-3.66 50.34 -4.32 49.68 -5 49 C-5.99 49.66 -6.98 50.32 -8 51 C-10.12109375 51.16015625 -10.12109375 51.16015625 -12.4375 51.0625 C-15.54376387 50.94161325 -18.00387732 51.20023817 -21 52 C-27.92567146 52.54965646 -27.92567146 52.54965646 -31.6875 50.625 C-34.51666145 47.41351943 -36.03110752 44.06835143 -37.69140625 40.14453125 C-38.7724317 37.85890632 -38.7724317 37.85890632 -40.83862305 37.37207031 C-44.29293575 36.77742753 -47.75711893 36.89738741 -51.25 36.9375 C-51.99507813 36.94201172 -52.74015625 36.94652344 -53.5078125 36.95117188 C-55.3385764 36.96290754 -57.16929873 36.9808415 -59 37 C-58.45150493 40.96455776 -58.45150493 40.96455776 -55.875 43.9375 C-51.93824204 45.39238881 -49.84617803 44.4957359 -46 43 C-45.01 42.34 -44.02 41.68 -43 41 C-40.3125 41.375 -40.3125 41.375 -38 42 C-38.96230483 45.46429738 -39.89278725 46.91024049 -42.6875 49.25 C-47.35245927 51.71450678 -50.93388061 52.41322388 -56.125 51.375 C-61.2746209 48.91213783 -64.45700736 45.02899946 -67 40 C-67.92875846 34.36687801 -68.34444876 28.52696112 -65.60546875 23.37890625 C-61.81640761 18.87991208 -58.21856853 16.39769669 -52.28125 15.6640625 C-44.78440926 15.55876979 -44.78440926 15.55876979 -41 17.6875 C-37.1258964 22.16693229 -35.46362952 26.25806882 -34 32 C-33.34 32 -32.68 32 -32 32 C-31.60167969 31.50886719 -31.20335937 31.01773438 -30.79296875 30.51171875 C-28.08129738 28.2254076 -25.78481278 28.709362 -22.3125 28.8125 C-21.13300781 28.83957031 -19.95351563 28.86664063 -18.73828125 28.89453125 C-17.83464844 28.92933594 -16.93101562 28.96414062 -16 29 C-16.66 26.69 -17.32 24.38 -18 22 C-20.97 22 -23.94 22 -27 22 C-27 22.66 -27 23.32 -27 24 C-30.47823115 25.15941038 -32.45895578 24.70820884 -36 24 C-35.5625 21.75 -35.5625 21.75 -34 19 C-28.58863638 15.43419618 -23.37435505 14.25632524 -17 15 C-13.7658882 16.33582879 -12.4167394 17.13572992 -10.89306641 20.2956543 C-9.99319731 23.02059963 -9.69114497 25.22389493 -9.5859375 28.08203125 C-9.52792969 29.47905273 -9.52792969 29.47905273 -9.46875 30.90429688 C-9.4378125 31.86400391 -9.406875 32.82371094 -9.375 33.8125 C-9.31699219 35.28106445 -9.31699219 35.28106445 -9.2578125 36.77929688 C-9.16389184 39.18601374 -9.07821799 41.59273012 -9 44 C-7.68 44.66 -6.36 45.32 -5 46 C-5.01571045 44.74864258 -5.0314209 43.49728516 -5.04760742 42.20800781 C-5.10192105 37.5638676 -5.13635539 32.91975545 -5.16479492 28.27539062 C-5.17987826 26.26557697 -5.20034772 24.25579621 -5.22631836 22.24609375 C-5.26272144 19.35668824 -5.27973088 16.46771804 -5.29296875 13.578125 C-5.30845261 12.68007141 -5.32393646 11.78201782 -5.33988953 10.85675049 C-5.34156618 4.63704755 -5.34156618 4.63704755 -3.60668945 1.40136719 C-2 0 -2 0 0 0 Z M-60 26 C-59.67 27.32 -59.34 28.64 -59 30 C-54.05 30 -49.1 30 -44 30 C-43.67 28.35 -43.34 26.7 -43 25 C-50.38187873 20.14905112 -53.40457812 20.50698293 -60 26 Z M-30 38 C-29.50168276 41.68754757 -28.89932357 43.60490662 -26 46 C-21.14922412 44.88059018 -18.222107 43.8665284 -15 40 C-15.66 38.35 -16.32 36.7 -17 35 C-24.14765614 34.37953338 -24.14765614 34.37953338 -30 38 Z " fill="#F9F8FC" transform="translate(363,163)"/>
<path d="M0 0 C3.19047433 1.63414539 5.16422178 3.66177145 7.5625 6.3125 C8.5834375 7.240625 8.5834375 7.240625 9.625 8.1875 C12.81628189 11.68761562 15.5625 15.448451 15.5625 20.3125 C16.2225 20.3125 16.8825 20.3125 17.5625 20.3125 C17.76875 19.4875 17.975 18.6625 18.1875 17.8125 C21.44186206 9.52866931 27.60957388 3.28896306 35.5625 -0.6875 C49.20982453 -1.66769458 49.20982453 -1.66769458 54.5625 2.3125 C59.35369488 7.6216619 59.67405281 10.3962255 59.5625 17.3125 C57.91314453 17.42464844 57.91314453 17.42464844 56.23046875 17.5390625 C44.36983033 18.51882515 35.60196502 20.83870716 27 29.625 C23.91137029 33.34896902 22.52409698 36.48511794 21.9140625 41.26953125 C21.51809574 43.57053811 20.6868485 45.27861756 19.5625 47.3125 C18.9025 47.3125 18.2425 47.3125 17.5625 47.3125 C17.2325 49.9525 16.9025 52.5925 16.5625 55.3125 C14.5121303 52.23694546 13.44313748 49.46699903 12.1875 46 C9.00248647 37.46237646 9.00248647 37.46237646 2.5625 31.3125 C2.5625 30.3225 2.5625 29.3325 2.5625 28.3125 C1.9025 28.3125 1.2425 28.3125 0.5625 28.3125 C-0.18 27.4771875 -0.18 27.4771875 -0.9375 26.625 C-8.20806695 19.89972557 -16.8536497 18.3189545 -26.4375 17.3125 C-26.73436516 12.2657923 -26.5301459 9.36493256 -23.4375 5.3125 C-16.85928789 -1.92353333 -9.30455316 -1.86091063 0 0 Z " fill="#19C3B0" transform="translate(157.4375,120.6875)"/>
<path d="M0 0 C10.75616849 1.5365955 16.90975797 7.11701075 23.4921875 15.49609375 C27.94761848 22.89487939 28.50609009 29.53074896 28.6875 38 C28.72166016 39.02222656 28.75582031 40.04445312 28.79101562 41.09765625 C29.22852754 55.50876305 29.00037675 69.91143309 28.62768555 84.3203125 C28.56203702 86.8931447 28.50258975 89.46607546 28.44335938 92.0390625 C28.06313194 107.76017914 27.78019031 119.44004138 17.265625 132.0859375 C6.96182437 141.7518838 -7.30571086 141.17943798 -20.5 141.125 C-21.74233398 141.12089111 -22.98466797 141.11678223 -24.26464844 141.11254883 C-27.95821387 141.09486062 -31.6515471 141.06255502 -35.3449707 141.02606201 C-37.21914714 141.00766492 -39.09333484 140.9903979 -40.9675293 140.97393799 C-47.60363474 140.91476498 -54.23913674 140.83546294 -60.87475586 140.73553467 C-63.11183588 140.70369774 -65.34898711 140.67650209 -67.58618164 140.65411377 C-70.77137355 140.62057606 -73.95576925 140.56830577 -77.140625 140.51171875 C-78.5610611 140.50211876 -78.5610611 140.50211876 -80.01019287 140.49232483 C-91.28247932 140.24575533 -98.51502995 137.43584673 -106.640625 129.57421875 C-110.22969577 125.65832862 -112.31406043 122.05781871 -114 117 C-113.01 116.01 -113.01 116.01 -112 115 C-110.9944239 116.45449401 -109.99569565 117.91372443 -109 119.375 C-108.443125 120.18710938 -107.88625 120.99921875 -107.3125 121.8359375 C-106 124 -106 124 -106 126 C-105.4225 126.28875 -104.845 126.5775 -104.25 126.875 C-102.16666667 127.91666667 -100.08333333 128.95833333 -98 130 C-98 130.66 -98 131.32 -98 132 C-92.24438158 133.64047834 -87.14040056 134.29365289 -81.17236328 134.2746582 C-79.90723404 134.2823246 -79.90723404 134.2823246 -78.61654663 134.29014587 C-75.85106141 134.30395286 -73.08582792 134.30309178 -70.3203125 134.30078125 C-68.38272002 134.30467316 -66.44512839 134.30900885 -64.50753784 134.31376648 C-60.45437856 134.32120966 -56.40130641 134.3209513 -52.34814453 134.31567383 C-47.17467119 134.30988285 -42.00155629 134.32681058 -36.82814217 134.3500185 C-32.8285008 134.36480771 -28.82894472 134.36562048 -24.82928085 134.36250877 C-22.92285325 134.36301941 -21.01642054 134.36820844 -19.11001968 134.37832069 C-3.72534809 135.0059488 -3.72534809 135.0059488 10.12521362 129.39595032 C12 128 12 128 14 128 C14.33 127.01 14.66 126.02 15 125 C15.66 125 16.32 125 17 125 C17 124.34 17 123.68 17 123 C17.66 123 18.32 123 19 123 C19.268125 122.319375 19.53625 121.63875 19.8125 120.9375 C21 118 21 118 22.54995728 114.85253906 C24.32937254 110.68481549 24.42363502 106.90533336 24.38818359 102.421875 C24.39344055 101.59328979 24.39869751 100.76470459 24.40411377 99.91101074 C24.41724473 97.19047822 24.40860033 94.47053777 24.3984375 91.75 C24.40046022 89.84863168 24.40337331 87.94726411 24.40713501 86.04589844 C24.41154901 82.06828396 24.40515708 78.09087211 24.39111328 74.11328125 C24.374022 69.02577585 24.38386813 63.93874532 24.40183067 58.85125732 C24.41269348 54.92720998 24.40921071 51.00327442 24.4014473 47.07922363 C24.39945219 45.20381615 24.40188023 43.32839838 24.40888596 41.45300293 C24.41654161 38.82777182 24.40483901 36.20329987 24.38818359 33.578125 C24.39729263 32.4261261 24.39729263 32.4261261 24.40658569 31.25085449 C24.28766255 21.08519094 19.04814502 14.95109655 12 8 C8.08229349 4.59369574 3.9769921 3.1944781 -1 2 C-0.67 1.34 -0.34 0.68 0 0 Z " fill="#B4BFD5" transform="translate(218,99)"/>
<path d="M0 0 C2.375 0.8125 2.375 0.8125 3.375 2.8125 C3.45808638 4.18798156 3.48236016 5.56735796 3.47265625 6.9453125 C3.47015869 7.67121582 3.46766113 8.39711914 3.46508789 9.14501953 C3.45598389 10.06653809 3.44687988 10.98805664 3.4375 11.9375 C3.416875 14.86625 3.39625 17.795 3.375 20.8125 C9.315 20.8125 15.255 20.8125 21.375 20.8125 C21.58448009 15.72760514 21.58448009 15.72760514 21.76293945 10.64160156 C21.9794109 6.45964703 22.40130672 3.84199986 25.375 0.8125 C27.75 1.0625 27.75 1.0625 30.375 1.8125 C32.14936059 4.5712156 32.62443243 6.73591448 32.61791992 9.98266602 C32.62253487 11.19896446 32.62253487 11.19896446 32.62724304 12.43983459 C32.62005753 13.30660324 32.61287201 14.17337189 32.60546875 15.06640625 C32.60501053 15.96366928 32.60455231 16.86093231 32.6040802 17.78538513 C32.60106334 19.67912115 32.59319396 21.5728548 32.58081055 23.46655273 C32.56254555 26.36776501 32.56030103 29.26865807 32.56054688 32.16992188 C32.55563167 34.01041943 32.54980335 35.85091482 32.54296875 37.69140625 C32.54185593 38.56019913 32.5407431 39.428992 32.53959656 40.32411194 C32.53321671 41.13182541 32.52683685 41.93953888 32.52026367 42.77172852 C32.51454597 43.83617943 32.51454597 43.83617943 32.50871277 44.9221344 C32.375 46.8125 32.375 46.8125 31.375 49.8125 C26.92 50.3075 26.92 50.3075 22.375 50.8125 C21.27412807 43.79444143 21.27766908 36.90684233 21.375 29.8125 C18.72819096 29.92589204 16.08322482 30.05262873 13.4375 30.1875 C12.30538086 30.23390625 12.30538086 30.23390625 11.15039062 30.28125 C9.21992605 30.3851315 7.29557919 30.59145614 5.375 30.8125 C3.55052841 34.46144317 4.00244513 39.00037258 3.85742188 43.046875 C3.58895614 48.59854386 3.58895614 48.59854386 1.375 50.8125 C-1.75 50.9375 -1.75 50.9375 -4.625 50.8125 C-6.84516299 45.46612959 -6.85424474 40.81929422 -6.70703125 35.14453125 C-6.68912033 34.22790207 -6.67120941 33.31127289 -6.65275574 32.36686707 C-6.61171162 30.43789637 -6.56516309 28.50903583 -6.51342773 26.58032227 C-6.43748941 23.62458772 -6.38867587 20.66921227 -6.34179688 17.71289062 C-6.29851409 15.83589899 -6.25364712 13.95894307 -6.20703125 12.08203125 C-6.19436722 11.1976387 -6.18170319 10.31324615 -6.1686554 9.40205383 C-6.14240585 8.58077499 -6.11615631 7.75949615 -6.08911133 6.91333008 C-6.06340813 5.83128044 -6.06340813 5.83128044 -6.03718567 4.72737122 C-5.26405543 1.1356771 -3.62014177 -0.25858155 0 0 Z " fill="#FCFAFC" transform="translate(427.625,164.1875)"/>
<path d="M0 0 C5.40033744 1.80011248 8.46071371 4.92142741 11 10 C11.13415472 12.6723621 11.04318541 15.32250488 11 18 C9.90042969 18.07476562 8.80085938 18.14953125 7.66796875 18.2265625 C-4.19266967 19.20632515 -12.96053498 21.52620716 -21.5625 30.3125 C-24.65112971 34.03646902 -26.03840302 37.17261794 -26.6484375 41.95703125 C-27.04440426 44.25803811 -27.8756515 45.96611756 -29 48 C-29.66 48 -30.32 48 -31 48 C-30.979375 46.88625 -30.95875 45.7725 -30.9375 44.625 C-30.73619282 41.16784079 -30.73619282 41.16784079 -32 39 C-32.07103175 35.45729153 -31.99666917 31.92556673 -31.9375 28.3828125 C-31.98785289 25.65746221 -32.17430445 23.56739709 -33 21 C-32.34 21 -31.68 21 -31 21 C-30.79375 20.175 -30.5875 19.35 -30.375 18.5 C-24.86998041 4.48722286 -14.39456522 -0.96431314 0 0 Z " fill="#2DCCB1" transform="translate(206,120)"/>
<path d="M0 0 C4.46952448 2.72457314 7.37343294 5.3116939 9.21484375 10.2734375 C10.55273337 16.62342109 10.46022581 22.67235483 9 29 C6.73792131 32.09700903 4.25639005 34.02090088 1 36 C0.67 36.33 0.34 36.66 0 37 C-6.19581358 37.54886253 -11.79516676 37.75232164 -17 34 C-21.40990473 29.88763101 -24.03956288 26.0827684 -25 20 C-24.97957874 14.75173724 -23.84485959 10.47049365 -21 6 C-15.0594415 0.22445701 -8.03526248 -2.69676618 0 0 Z M-12.4375 8.75 C-12.953125 9.4925 -13.46875 10.235 -14 11 C-13.64861417 13.11493075 -13.64861417 13.11493075 -13 15 C-11.41705218 15.05437607 -9.83355744 15.09296271 -8.25 15.125 C-7.36828125 15.14820313 -6.4865625 15.17140625 -5.578125 15.1953125 C-2.8864142 14.99139502 -1.30095026 14.36551721 1 13 C-0.36983503 9.83884224 -0.9890638 9.0072908 -4 7 C-7.71580247 6.52564224 -9.3601403 6.54061355 -12.4375 8.75 Z M-13 21 C-13.33 22.32 -13.66 23.64 -14 25 C-10.2759489 28.86735962 -10.2759489 28.86735962 -5.375 30.0625 C-2.59527624 28.81893937 -0.98887937 27.28352816 1 25 C0.67 24.01 0.34 23.02 0 22 C-2.64458379 20.67770811 -4.67761301 20.90322806 -7.625 20.9375 C-9.12933594 20.95103516 -9.12933594 20.95103516 -10.6640625 20.96484375 C-11.82035156 20.98224609 -11.82035156 20.98224609 -13 21 Z " fill="#FCF8FC" transform="translate(555,178)"/>
<path d="M0 0 C3.22089285 2.5355965 3.78588773 3.48787943 4.9375 7.3125 C5.20000866 9.8266293 5.38214771 12.34995192 5.5 14.875 C5.69285161 18.84616892 5.91223946 22.47819229 6.9375 26.3125 C7.10752546 29.00790361 7.02627822 31.60476438 6.9375 34.3125 C6.6075 34.6425 6.2775 34.9725 5.9375 35.3125 C3.60003478 35.00949525 1.26664823 34.67391955 -1.0625 34.3125 C-4.11520463 34.15438612 -4.11520463 34.15438612 -7.0625 35.3125 C-16.13888998 36.56638119 -16.13888998 36.56638119 -20.08203125 33.99609375 C-23.62530502 30.14246023 -25.1541031 26.62548002 -25.0625 21.3125 C-24.00369373 16.85358344 -22.60913016 13.13244525 -20.0625 9.3125 C-20.7225 9.3125 -21.3825 9.3125 -22.0625 9.3125 C-22.3925 7.0025 -22.7225 4.6925 -23.0625 2.3125 C-16.86354121 -2.77950186 -7.22437819 -3.76396175 0 0 Z M-17.0625 9.3125 C-17.0625 9.9725 -17.0625 10.6325 -17.0625 11.3125 C-13.1025 11.6425 -9.1425 11.9725 -5.0625 12.3125 C-4.7325 10.9925 -4.4025 9.6725 -4.0625 8.3125 C-5.86328782 6.10963999 -5.86328782 6.10963999 -8.3125 6 C-11.70979872 6.38605667 -14.09687731 7.65726873 -17.0625 9.3125 Z M-15.0625 18.3125 C-17.32896351 21.06806583 -17.32896351 21.06806583 -16.9375 23.875 C-16.27826868 26.40850232 -16.27826868 26.40850232 -14.25 27.6875 C-10.62939559 28.7219584 -8.66550505 27.58659321 -5.3125 26.0625 C-4.57 25.485 -3.8275 24.9075 -3.0625 24.3125 C-2.64469121 21.68555578 -2.64469121 21.68555578 -3.0625 19.3125 C-7.57045975 17.744514 -10.47916343 16.73697805 -15.0625 18.3125 Z " fill="#FCFAFC" transform="translate(489.0625,179.6875)"/>
<path d="M0 0 C5.19122186 2.9200623 7.36688733 6.99514321 9.125 12.5625 C9.41375 13.696875 9.7025 14.83125 10 16 C10.20625 16.804375 10.4125 17.60875 10.625 18.4375 C10.74875 18.953125 10.8725 19.46875 11 20 C10.34 20 9.68 20 9 20 C9.28241641 21.46015291 9.57626614 22.91809793 9.875 24.375 C10.03742188 25.18710938 10.19984375 25.99921875 10.3671875 26.8359375 C10.86658932 29.18673923 10.86658932 29.18673923 13 31 C16.8767436 32.49105523 20.92129517 32.25896539 25 32 C26.87890434 30.62493901 26.87890434 30.62493901 28 29 C28.66 29 29.32 29 30 29 C30 29.99 30 30.98 30 32 C30.66 32 31.32 32 32 32 C32 32.99 32 33.98 32 35 C29.27118374 35.27679283 26.54546556 35.52206665 23.8125 35.75 C23.04357422 35.83121094 22.27464844 35.91242188 21.48242188 35.99609375 C17.57842366 36.29769018 15.58064798 36.33348026 12.109375 34.33984375 C9.28714202 31.20925569 7.93538123 27.98915355 6.30859375 24.14453125 C5.2275683 21.85890632 5.2275683 21.85890632 3.16137695 21.37207031 C-0.29293575 20.77742753 -3.75711893 20.89738741 -7.25 20.9375 C-7.99507813 20.94201172 -8.74015625 20.94652344 -9.5078125 20.95117188 C-11.3385764 20.96290754 -13.16929873 20.9808415 -15 21 C-14.45150493 24.96455776 -14.45150493 24.96455776 -11.875 27.9375 C-7.93824204 29.39238881 -5.84617803 28.4957359 -2 27 C-1.01 26.34 -0.02 25.68 1 25 C3.6875 25.375 3.6875 25.375 6 26 C5.03769517 29.46429738 4.10721275 30.91024049 1.3125 33.25 C-3.35245927 35.71450678 -6.93388061 36.41322388 -12.125 35.375 C-17.2746209 32.91213783 -20.45700736 29.02899946 -23 24 C-23.92875846 18.36687801 -24.34444876 12.52696112 -21.60546875 7.37890625 C-15.63871912 0.29420353 -9.02171837 -1.10054095 0 0 Z M-16 10 C-15.67 11.32 -15.34 12.64 -15 14 C-10.05 14 -5.1 14 0 14 C0.33 12.35 0.66 10.7 1 9 C-6.38187873 4.14905112 -9.40457812 4.50698293 -16 10 Z " fill="#F7F9FC" transform="translate(319,179)"/>
<path d="M0 0 C1.65 0.33 3.3 0.66 5 1 C5.33 6.94 5.66 12.88 6 19 C12.27 18.67 18.54 18.34 25 18 C26.52106634 14.95786733 26.37429338 11.71952428 26.5625 8.375 C26.60568359 7.66859375 26.64886719 6.9621875 26.69335938 6.234375 C26.79944751 4.48981463 26.90022889 2.74493303 27 1 C28.875 0.375 28.875 0.375 31 0 C31.66 0.66 32.32 1.32 33 2 C32.98190559 4.72923947 32.85009297 7.34897326 32.625 10.0625 C32.18101586 16.4646737 31.8792709 22.83154413 31.875 29.25 C31.86847412 30.28459351 31.86847412 30.28459351 31.86181641 31.34008789 C31.87013351 34.41855196 32.04896885 37.27076894 32.59765625 40.3046875 C33.12156085 43.81433967 32.05375728 45.2068901 30 48 C29.01 47.67 28.02 47.34 27 47 C25.82530556 44.65061112 25.79965111 43.04926795 25.68359375 40.4296875 C25.64169922 39.53378906 25.59980469 38.63789063 25.55664062 37.71484375 C25.51732422 36.77769531 25.47800781 35.84054688 25.4375 34.875 C25.39431641 33.93011719 25.35113281 32.98523438 25.30664062 32.01171875 C25.2004106 29.67465828 25.09968729 27.3373487 25 25 C18.73 25 12.46 25 6 25 C6.40667882 30.41554218 6.40667882 30.41554218 6.83837891 35.82910156 C7.3234111 43.06516492 7.3234111 43.06516492 5 46 C2.375 46.75 2.375 46.75 0 47 C-1.89763256 45.19341155 -2.9134084 43.68944957 -3.24307251 41.06463623 C-3.28396414 38.60680594 -3.2323124 36.16758668 -3.14453125 33.7109375 C-3.12283371 32.8113028 -3.10113617 31.91166809 -3.07878113 30.98477173 C-3.02957398 29.08664651 -2.97278153 27.18870484 -2.90893555 25.29101562 C-2.81263549 22.37909688 -2.74335246 19.46744237 -2.67773438 16.5546875 C-2.62659847 14.71089247 -2.57391716 12.86713952 -2.51953125 11.0234375 C-2.49856888 10.14948334 -2.47760651 9.27552917 -2.45600891 8.37509155 C-2.2312375 2.2312375 -2.2312375 2.2312375 0 0 Z " fill="#FAFBFC" transform="translate(261,168)"/>
<path d="M0 0 C0.495 0.350625 0.99 0.70125 1.5 1.0625 C5.9315818 2.72434318 10.58500519 1.34652934 15.0625 0.25 C19.17691539 -0.10016301 21.45984387 0.92934264 25 3 C29.00426234 8.62481086 28.59011192 14.98583763 28.75 21.625 C28.79253906 22.75679687 28.83507812 23.88859375 28.87890625 25.0546875 C29.16998651 34.15364084 29.16998651 34.15364084 28 38 C21.125 37.125 21.125 37.125 20 36 C19.85529416 34.58371024 19.77299486 33.1609105 19.71875 31.73828125 C19.68136719 30.86623047 19.64398437 29.99417969 19.60546875 29.09570312 C19.55326172 27.71801758 19.55326172 27.71801758 19.5 26.3125 C19.18336263 18.11366743 19.18336263 18.11366743 18 10 C16.54052295 10.06006078 15.08220728 10.1488689 13.625 10.25 C12.81289063 10.29640625 12.00078125 10.3428125 11.1640625 10.390625 C8.83582141 10.78713616 8.83582141 10.78713616 7.7734375 12.921875 C7.51820313 13.60765625 7.26296875 14.2934375 7 15 C6.67 15.66 6.34 16.32 6 17 C5.88419218 18.42411349 5.82152717 19.85280443 5.7890625 21.28125 C5.76070312 22.12300781 5.73234375 22.96476562 5.703125 23.83203125 C5.65104786 25.61046564 5.60677447 27.3891457 5.5703125 29.16796875 C5.539375 30.00972656 5.5084375 30.85148437 5.4765625 31.71875 C5.45674316 32.49154297 5.43692383 33.26433594 5.41650391 34.06054688 C5 36 5 36 2 38 C1.01 38 0.02 38 -1 38 C-2.52264109 34.95471781 -2.16285537 31.77854754 -2.16796875 28.4375 C-2.17129715 27.69040771 -2.17462555 26.94331543 -2.17805481 26.17358398 C-2.18311966 24.59326799 -2.18546327 23.01294129 -2.18530273 21.43261719 C-2.18749134 19.00958757 -2.20565701 16.58701164 -2.22460938 14.1640625 C-2.22754292 12.6302099 -2.22952798 11.09635512 -2.23046875 9.5625 C-2.23765427 8.83538818 -2.24483978 8.10827637 -2.25224304 7.35913086 C-2.22882803 2.22882803 -2.22882803 2.22882803 0 0 Z " fill="#FCF9FC" transform="translate(571,177)"/>
<path d="M0 0 C2.78119959 2.78119959 3.37097518 6.06504116 4.4375 9.75 C5.89856372 14.78306493 7.49628798 19.35754856 10 24 C10.38091797 22.26363281 10.38091797 22.26363281 10.76953125 20.4921875 C11.11677954 18.9530329 11.46445867 17.41397547 11.8125 15.875 C11.97814453 15.11445313 12.14378906 14.35390625 12.31445312 13.5703125 C13.35284878 9.02488248 14.59472013 5.05299128 17 1 C19.95664519 -0.4783226 22.74229737 -0.06032783 26 0 C26.495 2.475 26.495 2.475 27 5 C26.34 5.33 25.68 5.66 25 6 C24.52223542 7.63805 24.05220988 9.27874665 23.62109375 10.9296875 C22.73538194 13.88206021 21.43354984 16.59342218 20.140625 19.38671875 C18.30018088 23.60335272 16.79146838 27.945228 15.24609375 32.27734375 C14 35 14 35 11 37 C7.8125 37.125 7.8125 37.125 5 37 C0.98248607 29.79809715 -1.84780207 22.26741389 -4.58813477 14.5144043 C-4.87229248 13.71687744 -5.1564502 12.91935059 -5.44921875 12.09765625 C-5.70018311 11.38101807 -5.95114746 10.66437988 -6.2097168 9.92602539 C-7.03564678 7.73275629 -7.03564678 7.73275629 -9 5 C-8.75 2.375 -8.75 2.375 -8 0 C-5.09288879 -1.4535556 -3.10402897 -0.71133997 0 0 Z " fill="#FBF8FB" transform="translate(505,178)"/>
<path d="M0 0 C10.75616849 1.5365955 16.90975797 7.11701075 23.4921875 15.49609375 C27.94761848 22.89487939 28.50609009 29.53074896 28.6875 38 C28.73874023 39.53333984 28.73874023 39.53333984 28.79101562 41.09765625 C29.22852754 55.50876305 29.00037675 69.91143309 28.62768555 84.3203125 C28.56203702 86.8931447 28.50258975 89.46607546 28.44335938 92.0390625 C27.8879896 114.86983141 27.8879896 114.86983141 24.9375 118.625 C24.298125 119.07875 23.65875 119.5325 23 120 C23.16167664 118.69660675 23.32335327 117.3932135 23.4899292 116.05032349 C24.0024301 111.41679479 24.15428832 106.85315036 24.16113281 102.19482422 C24.16609772 101.36594696 24.17106262 100.5370697 24.17617798 99.68307495 C24.1906428 96.97360371 24.19757206 94.26419081 24.203125 91.5546875 C24.20595238 90.62287785 24.20877975 89.69106819 24.21169281 88.73102188 C24.22661496 83.80814588 24.23589075 78.8852987 24.24023438 73.96240234 C24.24573536 68.8906959 24.26981749 63.81925569 24.29820633 58.74763298 C24.31685208 54.83219632 24.32203915 50.9168239 24.32357025 47.00134659 C24.32658856 45.13150692 24.33458924 43.26166816 24.34775543 41.39187241 C24.36487063 38.7765041 24.36292342 36.16178878 24.35644531 33.54638672 C24.3656601 32.78152954 24.37487488 32.01667236 24.3843689 31.2286377 C24.30583619 21.07235656 19.03482633 14.93796126 12 8 C8.08229349 4.59369574 3.9769921 3.1944781 -1 2 C-0.67 1.34 -0.34 0.68 0 0 Z " fill="#CED5E4" transform="translate(218,99)"/>
<path d="M0 0 C1.17369141 -0.00386719 1.17369141 -0.00386719 2.37109375 -0.0078125 C4.5625 0.125 4.5625 0.125 7.5625 1.125 C7.5625 2.115 7.5625 3.105 7.5625 4.125 C6.36625 3.91875 5.17 3.7125 3.9375 3.5 C0.0048982 2.98918162 -2.7496243 3.55765283 -6.4375 5.125 C-6.4375 5.785 -6.4375 6.445 -6.4375 7.125 C-4.4575 7.125 -2.4775 7.125 -0.4375 7.125 C-0.4375 8.115 -0.4375 9.105 -0.4375 10.125 C1.50259522 11.83032323 1.50259522 11.83032323 3.5625 13.125 C0.9225 13.455 -1.7175 13.785 -4.4375 14.125 C-5.45290112 18.22723585 -5.45290112 18.22723585 -4.4375 22.125 C-2.42080173 23.25850534 -2.42080173 23.25850534 -0.4375 24.125 C-1.0975 24.455 -1.7575 24.785 -2.4375 25.125 C-2.4375 25.785 -2.4375 26.445 -2.4375 27.125 C0.43700983 27.37548636 0.43700983 27.37548636 3.5625 27.125 C5.25048827 25.68749809 5.25048827 25.68749809 6.5625 24.125 C7.5525 24.125 8.5425 24.125 9.5625 24.125 C9.5625 25.115 9.5625 26.105 9.5625 27.125 C11.5425 27.455 13.5225 27.785 15.5625 28.125 C15.39878906 27.57328125 15.23507812 27.0215625 15.06640625 26.453125 C14.50489586 23.85885993 14.46510992 21.52664589 14.5 18.875 C14.50902344 17.98296875 14.51804687 17.0909375 14.52734375 16.171875 C14.53894531 15.49640625 14.55054688 14.8209375 14.5625 14.125 C17.38687147 19.68189347 17.76626278 23.9102353 17.5625 30.125 C17.2325 30.455 16.9025 30.785 16.5625 31.125 C14.22503478 30.82199525 11.89164823 30.48641955 9.5625 30.125 C6.50979537 29.96688612 6.50979537 29.96688612 3.5625 31.125 C-5.51388998 32.37888119 -5.51388998 32.37888119 -9.45703125 29.80859375 C-13.00030502 25.95496023 -14.5291031 22.43798002 -14.4375 17.125 C-13.14799696 10.82325469 -10.46533308 6.08233302 -6.4375 1.125 C-4.08479407 -0.05135297 -2.616748 -0.00859359 0 0 Z " fill="#F9F7FA" transform="translate(478.4375,183.875)"/>
<path d="M0 0 C-3.32845621 3.03902523 -6.81067211 3.94909471 -11.07421875 5.05859375 C-13.21151361 5.82814251 -13.21151361 5.82814251 -13.76953125 8.09765625 C-13.84558594 8.72542969 -13.92164062 9.35320312 -14 10 C-14.66 10 -15.32 10 -16 10 C-15.88487847 11.72985242 -15.75744323 13.45888751 -15.625 15.1875 C-15.55539063 16.15042969 -15.48578125 17.11335938 -15.4140625 18.10546875 C-14.99682396 21.02220232 -14.11984967 23.29142051 -13 26 C-13 26.99 -13 27.98 -13 29 C-12.34 29 -11.68 29 -11 29 C-9 32 -9 32 -9 36 C-8.360625 36.268125 -7.72125 36.53625 -7.0625 36.8125 C-5 38 -5 38 -4 41 C-0.7033018 44.76765509 2.4296247 46.98053184 7 49 C7 49.99 7 50.98 7 52 C8.32 52.33 9.64 52.66 11 53 C11 53.99 11 54.98 11 56 C11.99 56 12.98 56 14 56 C15.6875 57.3125 15.6875 57.3125 17 59 C17 59.99 17 60.98 17 62 C19.33214148 63.20628008 21.49642139 64.1654738 24 65 C24.6875 67.0625 24.6875 67.0625 25 69 C25.99 69 26.98 69 28 69 C30.68091237 71.405947 32.92281135 73.9001088 35.125 76.75 C36.87431597 79.25052455 36.87431597 79.25052455 40 80 C41.1875 82.0625 41.1875 82.0625 42 84 C37.93039841 82.63146141 35.41541717 80.81892472 32.3125 77.875 C27.3978005 73.31919808 22.26309221 69.14309162 17 65 C14.10312282 62.71855381 11.42466579 60.53791 9.125 57.625 C7.26048797 55.32177926 5.49807277 53.64817818 3.25 51.75 C-5.75020257 44.03793051 -17.14870102 32.98593369 -18.31640625 20.66015625 C-18.48521583 15.47062308 -18.52958557 11.25776573 -16.5 6.4375 C-11.53237441 1.59406505 -7.1951056 -2.33840932 0 0 Z " fill="#2487A5" transform="translate(133,139)"/>
<path d="M0 0 C0 0.66 0 1.32 0 2 C-0.99 2 -1.98 2 -3 2 C-3 2.66 -3 3.32 -3 4 C-3.845625 4.33 -4.69125 4.66 -5.5625 5 C-10.03733568 7.60354076 -12.81225052 10.97865018 -16 15 C-16.52078125 15.65097656 -17.0415625 16.30195313 -17.578125 16.97265625 C-19.05954469 19.08490026 -20.0587468 21.12675357 -21.0625 23.5 C-22.0078491 25.71720432 -22.94441215 27.89333697 -24.05859375 30.03125 C-25.70451628 33.47334524 -26.12467759 36.6096192 -26.11352539 40.40136719 C-26.11344986 41.2619574 -26.11337433 42.12254761 -26.11329651 43.00921631 C-26.10813522 43.92914368 -26.10297394 44.84907104 -26.09765625 45.796875 C-26.0962413 46.74564514 -26.09482635 47.69441528 -26.09336853 48.67193604 C-26.08777742 51.69798962 -26.07522652 54.72396883 -26.0625 57.75 C-26.05748385 59.80338435 -26.05292115 61.85676986 -26.04882812 63.91015625 C-26.03781089 68.94013276 -26.02055233 73.97005378 -26 79 C-25.34 79 -24.68 79 -24 79 C-23.67 78.01 -23.34 77.02 -23 76 C-21.515 75.505 -21.515 75.505 -20 75 C-19.38125 73.989375 -18.7625 72.97875 -18.125 71.9375 C-17.073125 70.4834375 -17.073125 70.4834375 -16 69 C-13.25 68.625 -13.25 68.625 -11 69 C-14.27226444 72.38133992 -17.67398438 75.6137516 -21.125 78.8125 C-22.39730469 79.99779297 -22.39730469 79.99779297 -23.6953125 81.20703125 C-26 83 -26 83 -29 83 C-29.0252908 75.63102956 -29.04284179 68.26207026 -29.05493164 60.89306641 C-29.05997003 58.38459861 -29.06680084 55.87613376 -29.07543945 53.36767578 C-29.08752661 49.7685473 -29.09323315 46.16945753 -29.09765625 42.5703125 C-29.10281754 41.44319855 -29.10797882 40.31608459 -29.11329651 39.15481567 C-29.11337204 38.11388763 -29.11344757 37.07295959 -29.11352539 36.00048828 C-29.115746 35.08115509 -29.11796661 34.1618219 -29.12025452 33.21463013 C-29 31 -29 31 -28 29 C-27.34 29 -26.68 29 -26 29 C-25.86207031 28.41863281 -25.72414062 27.83726562 -25.58203125 27.23828125 C-22.84280843 16.70422301 -18.42509309 8.40864902 -8.875 2.73828125 C-3.64824561 0 -3.64824561 0 0 0 Z " fill="#29C892" transform="translate(203,139)"/>
<path d="M0 0 C1.33895632 1.66215268 2.67130142 3.32963607 4 5 C4.5775 5.721875 5.155 6.44375 5.75 7.1875 C7 9 7 9 7 11 C7.5775 11.28875 8.155 11.5775 8.75 11.875 C10.83333333 12.91666667 12.91666667 13.95833333 15 15 C15 15.66 15 16.32 15 17 C17.64 17.66 20.28 18.32 23 19 C23 19.66 23 20.32 23 21 C24.36705078 20.99129883 24.36705078 20.99129883 25.76171875 20.98242188 C37.18172035 20.94265073 48.58467823 21.19275958 60 21.5 C61.85416173 21.54836661 63.70832839 21.59654477 65.5625 21.64453125 C70.04172622 21.7608562 74.52087875 21.8797036 79 22 C79 22.33 79 22.66 79 23 C71.41 23 63.82 23 56 23 C56 23.66 56 24.32 56 25 C51.76826361 25.07497625 47.53689412 25.12898541 43.3046875 25.16479492 C41.8693975 25.17974586 40.43415209 25.20011424 38.99902344 25.22631836 C27.76168056 25.42614559 17.72266943 25.46498385 9.125 17.25 C4.25243975 12.53572914 1.15248312 8.45744936 -1 2 C-0.67 1.34 -0.34 0.68 0 0 Z " fill="#B9C4DA" transform="translate(105,214)"/>
<path d="M0 0 C0.66 0.33 1.32 0.66 2 1 C1.01 2.485 1.01 2.485 0 4 C-0.66 4 -1.32 4 -2 4 C-2.2475 4.70125 -2.495 5.4025 -2.75 6.125 C-4.16039511 9.36890874 -6.02649053 12.07156659 -8 15 C-9.2614449 18.7843347 -9.13941346 22.32142825 -9.12939453 26.26342773 C-9.13114685 27.10600128 -9.13289917 27.94857483 -9.13470459 28.81668091 C-9.13911061 31.60567273 -9.13618923 34.39460127 -9.1328125 37.18359375 C-9.13348596 39.12028516 -9.13445634 41.05697648 -9.13571167 42.9936676 C-9.137187 47.05478723 -9.13503959 51.11588488 -9.13037109 55.17700195 C-9.12467771 60.38359804 -9.12795138 65.59014253 -9.13394356 70.79673672 C-9.13755684 74.79698577 -9.13640698 78.79722258 -9.13381577 82.797472 C-9.13314843 84.71722482 -9.13396819 86.63697875 -9.13629532 88.55673027 C-9.13883396 91.24024268 -9.1349639 93.92367155 -9.12939453 96.60717773 C-9.13141876 97.40159775 -9.13344299 98.19601776 -9.13552856 99.01451111 C-9.15106808 103.1130644 -9.15106808 103.1130644 -8.36706352 107.11023045 C-8.24593256 107.7338544 -8.1248016 108.35747835 -8 109 C-8.99 109.99 -8.99 109.99 -10 111 C-11.66298606 105.92520496 -12.28950059 101.38887778 -12.25878906 96.03613281 C-12.2622937 95.2724942 -12.26579834 94.50885559 -12.26940918 93.72207642 C-12.27815888 91.21566476 -12.27239903 88.70953918 -12.265625 86.203125 C-12.26697415 84.44586127 -12.26891676 82.68859791 -12.27142334 80.93133545 C-12.27436593 77.25301551 -12.27010689 73.57479295 -12.26074219 69.89648438 C-12.24938189 65.20853486 -12.25589088 60.52081527 -12.26788712 55.8328743 C-12.27515793 52.20377918 -12.27279339 48.5747374 -12.26763153 44.94564056 C-12.26630768 43.21867597 -12.26789786 41.49170635 -12.27259064 39.76474762 C-12.32545453 14.83269049 -12.32545453 14.83269049 -6 6.9375 C-5.29875 6.03902344 -4.5975 5.14054687 -3.875 4.21484375 C-2 2 -2 2 0 0 Z " fill="#E3F1F5" transform="translate(114,105)"/>
<path d="M0 0 C2.625 0.375 2.625 0.375 5 1 C5 3.64 5 6.28 5 9 C3 5.25 3 5.25 3 3 C2.01 3 1.02 3 0 3 C0 16.2 0 29.4 0 43 C0.99 43 1.98 43 3 43 C3 36.73 3 30.46 3 24 C4.65 24 6.3 24 8 24 C7.34 24.33 6.68 24.66 6 25 C6.09539062 26.18078125 6.19078125 27.3615625 6.2890625 28.578125 C6.40163471 30.13537391 6.51358114 31.69266815 6.625 33.25 C6.68945312 34.02730469 6.75390625 34.80460937 6.8203125 35.60546875 C7.32982337 43.05706522 7.32982337 43.05706522 5 46 C2.375 46.75 2.375 46.75 0 47 C-1.89763256 45.19341155 -2.9134084 43.68944957 -3.24307251 41.06463623 C-3.28396414 38.60680594 -3.2323124 36.16758668 -3.14453125 33.7109375 C-3.12283371 32.8113028 -3.10113617 31.91166809 -3.07878113 30.98477173 C-3.02957398 29.08664651 -2.97278153 27.18870484 -2.90893555 25.29101562 C-2.81263549 22.37909688 -2.74335246 19.46744237 -2.67773438 16.5546875 C-2.62659847 14.71089247 -2.57391716 12.86713952 -2.51953125 11.0234375 C-2.49856888 10.14948334 -2.47760651 9.27552917 -2.45600891 8.37509155 C-2.2312375 2.2312375 -2.2312375 2.2312375 0 0 Z " fill="#EAF0F2" transform="translate(261,168)"/>
<path d="M0 0 C0.87840546 -0.00014603 1.75681091 -0.00029205 2.66183472 -0.0004425 C5.56201659 0.00025354 8.46213405 0.00803153 11.36230469 0.01586914 C13.37440964 0.01773442 15.38651504 0.0191578 17.39862061 0.02015686 C22.69223283 0.02397341 27.98581757 0.03379637 33.27941895 0.04486084 C38.68204375 0.05509347 44.08467299 0.05965845 49.48730469 0.06469727 C60.08627509 0.07541939 70.6852251 0.0924855 81.28417969 0.11352539 C78.77306754 2.62463754 77.27041557 2.34479392 73.84580994 2.35125732 C73.08788651 2.34249573 72.32996307 2.33373413 71.54907227 2.32470703 C70.35118073 2.32273567 70.35118073 2.32273567 69.12908936 2.32072449 C66.47884446 2.3142138 63.82888476 2.29376452 61.17871094 2.27368164 C59.33746147 2.26741153 57.49620823 2.26217134 55.654953 2.25791931 C50.79631421 2.24459033 45.93780012 2.22015675 41.07922363 2.19256592 C33.32003689 2.14953519 25.56081903 2.1196548 17.80154991 2.09652519 C15.09452424 2.08633527 12.38760359 2.06927449 9.68061829 2.05152893 C8.0091664 2.04469553 6.33771357 2.03808692 4.66625977 2.03173828 C3.91845749 2.02500092 3.17065521 2.01826355 2.40019226 2.01132202 C-3.72119182 1.99816387 -9.26734835 2.19470113 -14.71582031 5.11352539 C-15.70582031 5.11352539 -16.69582031 5.11352539 -17.71582031 5.11352539 C-17.71582031 5.77352539 -17.71582031 6.43352539 -17.71582031 7.11352539 C-20.21582031 8.73852539 -20.21582031 8.73852539 -22.71582031 10.11352539 C-22.08663738 7.28220218 -21.39161133 5.56603744 -18.94238281 3.92602539 C-12.5061009 0.67199439 -7.20552874 -0.03131809 0 0 Z " fill="#ECF8F9" transform="translate(136.7158203125,98.886474609375)"/>
<path d="M0 0 C1.12109375 1.7265625 1.12109375 1.7265625 2 4 C0.09822983 10.26331494 -4.47948914 15.60276255 -10 19 C-12.94806688 20.24129132 -15.90469996 21.19985441 -19 22 C-19 21.34 -19 20.68 -19 20 C-20.65 20.33 -22.3 20.66 -24 21 C-24 19.68 -24 18.36 -24 17 C-23.32453125 16.81824219 -22.6490625 16.63648438 -21.953125 16.44921875 C-21.06109375 16.19785156 -20.1690625 15.94648438 -19.25 15.6875 C-18.36828125 15.44386719 -17.4865625 15.20023438 -16.578125 14.94921875 C-13.93799305 13.97717017 -12.20523478 12.71145395 -10 11 C-9.34 11 -8.68 11 -8 11 C-7.67 10.01 -7.34 9.02 -7 8 C-6.34 8 -5.68 8 -5 8 C-5 7.34 -5 6.68 -5 6 C-4.34 6 -3.68 6 -3 6 C-2.690625 5.195625 -2.38125 4.39125 -2.0625 3.5625 C-1 1 -1 1 0 0 Z " fill="#BEC5D9" transform="translate(240,216)"/>
<path d="M0 0 C5.40033744 1.80011248 8.46071371 4.92142741 11 10 C11.13415472 12.6723621 11.04318541 15.32250488 11 18 C8.70366176 14.55549263 8.45983515 12.06187717 8 8 C7.34 8 6.68 8 6 8 C4.375 6.625 4.375 6.625 3 5 C3 4.34 3 3.68 3 3 C-2.61 2.67 -8.22 2.34 -14 2 C-14.33 2.99 -14.66 3.98 -15 5 C-17.0625 5.6875 -17.0625 5.6875 -19 6 C-19 6.66 -19 7.32 -19 8 C-19.99 8.33 -20.98 8.66 -22 9 C-23.24213047 11.02100377 -23.24213047 11.02100377 -24.1875 13.4375 C-24.53167969 14.24058594 -24.87585938 15.04367188 -25.23046875 15.87109375 C-26.11331376 17.93619585 -26.11331376 17.93619585 -26 20 C-26 20.66 -26 21.32 -26 22 C-28.31 22.33 -30.62 22.66 -33 23 C-33 22.34 -33 21.68 -33 21 C-32.34 21 -31.68 21 -31 21 C-30.79375 20.175 -30.5875 19.35 -30.375 18.5 C-24.86998041 4.48722286 -14.39456522 -0.96431314 0 0 Z " fill="#50BEAC" transform="translate(206,120)"/>
<path d="M0 0 C0.66 0.33 1.32 0.66 2 1 C1.96519531 1.60328125 1.93039062 2.2065625 1.89453125 2.828125 C1.68349831 7.83394352 1.68349831 7.83394352 3.25 12.5 C7.17213897 15.86183341 12.07733714 15.31255002 17 15 C18.87890434 13.62493901 18.87890434 13.62493901 20 12 C20.66 12 21.32 12 22 12 C22 12.99 22 13.98 22 15 C22.66 15 23.32 15 24 15 C24 15.99 24 16.98 24 18 C21.27118374 18.27679283 18.54546556 18.52206665 15.8125 18.75 C15.04357422 18.83121094 14.27464844 18.91242188 13.48242188 18.99609375 C9.57842366 19.29769018 7.58064798 19.33348026 4.109375 17.33984375 C1.28714202 14.20925569 -0.06461877 10.98915355 -1.69140625 7.14453125 C-2.77001776 4.86717715 -2.77001776 4.86717715 -4.79760742 4.37207031 C-7.09472901 3.98399656 -9.2179312 3.88660764 -11.546875 3.90234375 C-12.39121094 3.90556641 -13.23554688 3.90878906 -14.10546875 3.91210938 C-14.97816406 3.92048828 -15.85085938 3.92886719 -16.75 3.9375 C-17.63816406 3.94201172 -18.52632813 3.94652344 -19.44140625 3.95117188 C-21.62767329 3.962926 -23.81380179 3.97935751 -26 4 C-26 3.34 -26 2.68 -26 2 C-17.42 2 -8.84 2 0 2 C0 1.34 0 0.68 0 0 Z " fill="#E2E1EF" transform="translate(327,196)"/>
<path d="M0 0 C3.31106818 3.83802863 3.52030581 6.42193297 3.33984375 11.359375 C1.79981654 23.32556342 -8.16970813 33.46008792 -16 42 C-16.495 40.515 -16.495 40.515 -17 39 C-16.67 38.34 -16.34 37.68 -16 37 C-15.34 37 -14.68 37 -14 37 C-12.58622659 34.36095629 -11.62759865 31.92879371 -11 29 C-10.01 29 -9.02 29 -8 29 C-7.896875 28.443125 -7.79375 27.88625 -7.6875 27.3125 C-6.86430914 24.54358529 -5.49481884 22.47220039 -4 20 C-0.50933019 13.5556865 -0.31607744 7.24798269 0 0 Z " fill="#3EC07B" transform="translate(231,146)"/>
<path d="M0 0 C3.19047433 1.63414539 5.16422178 3.66177145 7.5625 6.3125 C8.5834375 7.240625 8.5834375 7.240625 9.625 8.1875 C12.35596069 11.18274721 15.5625 15.1370247 15.5625 19.3125 C12.5625 18.3125 12.5625 18.3125 11.5625 16.4375 C11.2325 15.73625 10.9025 15.035 10.5625 14.3125 C10.0675 13.8175 9.5725 13.3225 9.0625 12.8125 C7.5625 11.3125 7.5625 11.3125 6.625 9.3125 C5.29194194 6.80321424 3.99248208 5.77048925 1.5625 4.3125 C-2.17067053 3.36788493 -5.71900522 3.14908205 -9.5625 3.125 C-11.11324219 3.10373047 -11.11324219 3.10373047 -12.6953125 3.08203125 C-15.65470034 3.10841855 -15.65470034 3.10841855 -18.4375 5.3125 C-20.625 4.9375 -20.625 4.9375 -22.4375 4.3125 C-16.34735597 -2.19765397 -8.39732944 -1.67946589 0 0 Z " fill="#34B9AC" transform="translate(157.4375,120.6875)"/>
<path d="M0 0 C0.99 0.33 1.98 0.66 3 1 C3.10845031 3.56364483 3.18749744 6.12266279 3.25 8.6875 C3.30027344 9.7693457 3.30027344 9.7693457 3.3515625 10.87304688 C3.44412855 15.94103834 2.62266265 18.21512858 -1 22 C-2.04451438 23.97711651 -3.05698138 25.97250996 -4 28 C-4.99 28 -5.98 28 -7 28 C-7.33 29.65 -7.66 31.3 -8 33 C-8.66 33 -9.32 33 -10 33 C-10.226875 33.763125 -10.45375 34.52625 -10.6875 35.3125 C-12.27985952 38.57304568 -13.72736399 39.5273138 -17 41 C-17.66 40.67 -18.32 40.34 -19 40 C-18.443125 39.41734375 -17.88625 38.8346875 -17.3125 38.234375 C-8.62046647 28.89631195 0.42257344 19.01580478 0.125 5.625 C0.10695312 4.56539062 0.08890625 3.50578125 0.0703125 2.4140625 C0.04710937 1.61742187 0.02390625 0.82078125 0 0 Z " fill="#DFFDF0" transform="translate(233,148)"/>
<path d="M0 0 C-0.54269531 0.30292969 -1.08539063 0.60585937 -1.64453125 0.91796875 C-2.35996094 1.33691406 -3.07539062 1.75585938 -3.8125 2.1875 C-4.87404297 2.79658203 -4.87404297 2.79658203 -5.95703125 3.41796875 C-9.48902291 6.15306746 -10.82393126 8.79833083 -11.46875 13.19921875 C-11.57419111 24.96908276 -8.45111258 31.98263766 -0.35546875 40.40625 C1 42 1 42 1 44 C-2.01550139 43.68293386 -2.94891856 43.0557876 -5.03515625 40.77734375 C-12.41130417 30.44505177 -15.53873579 23.00382598 -14 10 C-12.4765625 6.5703125 -12.4765625 6.5703125 -11 4 C-10.34 4 -9.68 4 -9 4 C-8.731875 3.360625 -8.46375 2.72125 -8.1875 2.0625 C-6.08556352 -1.58823178 -3.58713791 -1.1132497 0 0 Z " fill="#CBF2F8" transform="translate(127,139)"/>
<path d="M0 0 C2.82437147 5.55689347 3.20376278 9.7852353 3 16 C2.67 16.33 2.34 16.66 2 17 C-0.33746522 16.69699525 -2.67085177 16.36141955 -5 16 C-8.05270463 15.84188612 -8.05270463 15.84188612 -11 17 C-12.89470816 17.0685495 -14.7916834 17.08480372 -16.6875 17.0625 C-17.68136719 17.05347656 -18.67523438 17.04445312 -19.69921875 17.03515625 C-20.83810547 17.01775391 -20.83810547 17.01775391 -22 17 C-22.33 16.01 -22.66 15.02 -23 14 C-22.16855469 13.96261719 -21.33710938 13.92523438 -20.48046875 13.88671875 C-18.85044922 13.78810547 -18.85044922 13.78810547 -17.1875 13.6875 C-16.10855469 13.62949219 -15.02960938 13.57148438 -13.91796875 13.51171875 C-10.71926018 12.95076718 -10.07941362 12.32919304 -8 10 C-7.01 10 -6.02 10 -5 10 C-5 10.99 -5 11.98 -5 13 C-2.03 13.495 -2.03 13.495 1 14 C0.83628906 13.44828125 0.67257812 12.8965625 0.50390625 12.328125 C-0.05760414 9.73385993 -0.09739008 7.40164589 -0.0625 4.75 C-0.05347656 3.85796875 -0.04445313 2.9659375 -0.03515625 2.046875 C-0.02355469 1.37140625 -0.01195312 0.6959375 0 0 Z " fill="#EAE5EE" transform="translate(493,198)"/>
<path d="M0 0 C0 3 0 3 -0.98779297 5.0690918 C-2.46389429 9.34323467 -2.24596783 13.40555444 -2.1953125 17.89453125 C-2.1924826 18.84188644 -2.18965271 19.78924164 -2.18673706 20.76530457 C-2.17557187 23.78116666 -2.15047389 26.79672816 -2.125 29.8125 C-2.11496547 31.86132383 -2.10584045 33.91015232 -2.09765625 35.95898438 C-2.07564449 40.97277148 -2.04113971 45.98633483 -2 51 C-1.34 51 -0.68 51 0 51 C0.33 50.01 0.66 49.02 1 48 C2.485 47.505 2.485 47.505 4 47 C4.61875 45.989375 5.2375 44.97875 5.875 43.9375 C6.926875 42.4834375 6.926875 42.4834375 8 41 C10.75 40.625 10.75 40.625 13 41 C9.72773556 44.38133992 6.32601562 47.6137516 2.875 50.8125 C2.02679688 51.60269531 1.17859375 52.39289063 0.3046875 53.20703125 C-2 55 -2 55 -5 55 C-4.95834965 47.97035336 -4.88604166 40.94149964 -4.79248047 33.91235352 C-4.76426665 31.52147584 -4.74305421 29.13050481 -4.72900391 26.73950195 C-4.7075809 23.30110875 -4.66093134 19.86383841 -4.609375 16.42578125 C-4.60814636 15.35789871 -4.60691772 14.29001617 -4.60565186 13.18977356 C-4.45851623 5.72309129 -4.45851623 5.72309129 -1.96191406 1.78588867 C-1.31448242 1.19654541 -0.66705078 0.60720215 0 0 Z " fill="#28C883" transform="translate(179,167)"/>
<path d="M0 0 C0.66 0.33 1.32 0.66 2 1 C2 1.99 2 2.98 2 4 C1.01 4.495 1.01 4.495 0 5 C-0.47776458 6.63805 -0.94779012 8.27874665 -1.37890625 9.9296875 C-2.26461806 12.88206021 -3.56645016 15.59342218 -4.859375 18.38671875 C-6.69981912 22.60335272 -8.20853162 26.945228 -9.75390625 31.27734375 C-11 34 -11 34 -14 36 C-17.1875 36.125 -17.1875 36.125 -20 36 C-20 35.01 -20 34.02 -20 33 C-18.90727783 32.80341797 -17.81455566 32.60683594 -16.6887207 32.40429688 C-12.82302519 31.35959719 -12.82302519 31.35959719 -11.22729492 28.14257812 C-10.81584229 26.95083984 -10.40438965 25.75910156 -9.98046875 24.53125 C-9.75096024 23.89513794 -9.52145172 23.25902588 -9.2849884 22.6036377 C-8.55938422 20.57730852 -7.87251787 18.54036606 -7.1875 16.5 C-6.47717587 14.46301635 -5.75916728 12.42898092 -5.03645325 10.3963623 C-4.38587593 8.55482136 -3.75529927 6.7062511 -3.12573242 4.85742188 C-2 2 -2 2 0 0 Z " fill="#ECE6F1" transform="translate(530,179)"/>
<path d="M0 0 C-2.78953713 1.39476856 -4.95809371 0.87267511 -8.0625 0.6875 C-15.03711146 0.65674096 -18.97868971 2.20381668 -24 7 C-27.96771537 11.34087862 -30.98069553 15.44935149 -33 21 C-33.66 21 -34.32 21 -35 21 C-35.99 18.36 -36.98 15.72 -38 13 C-35.525 13.99 -35.525 13.99 -33 15 C-32.74605469 14.45730469 -32.49210938 13.91460937 -32.23046875 13.35546875 C-31.88628906 12.64003906 -31.54210937 11.92460937 -31.1875 11.1875 C-30.85105469 10.47980469 -30.51460937 9.77210938 -30.16796875 9.04296875 C-27.89473908 5.06671753 -25.1317964 3.36987312 -21.0625 1.375 C-20.20785156 0.94960937 -19.35320312 0.52421875 -18.47265625 0.0859375 C-12.7079852 -2.44578217 -5.52578028 -3.68385352 0 0 Z " fill="#C7F8F4" transform="translate(208,120)"/>
<path d="M0 0 C1.4540625 1.2375 1.4540625 1.2375 2.9375 2.5 C2.9375 3.16 2.9375 3.82 2.9375 4.5 C0.44388429 3.29618552 -1.74393083 2.04571278 -4.0625 0.5 C-6.61232273 0.27484363 -9.01384299 0.16856847 -11.5625 0.1875 C-12.62694336 0.18943359 -12.62694336 0.18943359 -13.71289062 0.19140625 C-19.80716903 0.30151065 -25.31121798 1.45293352 -31.0625 3.5 C-30.7325 2.84 -30.4025 2.18 -30.0625 1.5 C-29.4025 1.5 -28.7425 1.5 -28.0625 1.5 C-28.0625 0.84 -28.0625 0.18 -28.0625 -0.5 C-27.0725 -0.5 -26.0825 -0.5 -25.0625 -0.5 C-25.0625 -1.16 -25.0625 -1.82 -25.0625 -2.5 C-15.71037898 -4.55715014 -8.21972204 -5.54009266 0 0 Z " fill="#35C584" transform="translate(228.0625,141.5)"/>
<path d="M0 0 C3.96 0 7.92 0 12 0 C12.60711365 8.13532298 12.60711365 8.13532298 9.9375 11.9375 C4.6257975 15.66699325 -0.58797818 16.49323245 -7 16 C-7.99 15.34 -8.98 14.68 -10 14 C-9.16855469 13.93941406 -8.33710937 13.87882813 -7.48046875 13.81640625 C-6.39378906 13.73261719 -5.30710937 13.64882812 -4.1875 13.5625 C-3.10855469 13.48128906 -2.02960937 13.40007812 -0.91796875 13.31640625 C2.05989905 13.09787539 2.05989905 13.09787539 5 12 C5 11.34 5 10.68 5 10 C6 9 7 8 8 7 C8.33 6.01 8.66 5.02 9 4 C8.01 4 7.02 4 6 4 C5.67 3.34 5.34 2.68 5 2 C2.47266765 1.34444881 2.47266765 1.34444881 0 1 C0 0.67 0 0.34 0 0 Z " fill="#E1D8E8" transform="translate(552,198)"/>
<path d="M0 0 C0.66 0.33 1.32 0.66 2 1 C0.625 3.5 0.625 3.5 -1 6 C-1.66 6 -2.32 6 -3 6 C-3.66 7.65 -4.32 9.3 -5 11 C-5.99 11 -6.98 11 -8 11 C-8 11.66 -8 12.32 -8 13 C-10.5614657 15.29648649 -11.47967572 16 -15 16 C-15.268125 16.598125 -15.53625 17.19625 -15.8125 17.8125 C-17.02493496 20.04593283 -17.94652273 21.49938199 -20 23 C-22.1015625 22.57421875 -22.1015625 22.57421875 -24 22 C-22.04709472 20.16056628 -20.08818082 18.32840869 -18.125 16.5 C-17.29162109 15.71302734 -17.29162109 15.71302734 -16.44140625 14.91015625 C-12.2265625 11 -12.2265625 11 -10 11 C-10 10.34 -10 9.68 -10 9 C-8.06640625 7.34375 -8.06640625 7.34375 -5.5625 5.5 C-2.25143208 3.20089737 -2.25143208 3.20089737 0 0 Z " fill="#CEF7E2" transform="translate(208,193)"/>
<path d="M0 0 C2.70471323 2.45883021 2.82434853 4.30272798 3.0625 7.875 C2.423125 7.09125 1.78375 6.3075 1.125 5.5 C-2.26193103 2.04454724 -6.29887332 1.55209801 -10.9375 0.875 C-10.9375 1.535 -10.9375 2.195 -10.9375 2.875 C-12.9175 3.865 -12.9175 3.865 -14.9375 4.875 C-14.2775 4.875 -13.6175 4.875 -12.9375 4.875 C-12.9375 5.865 -12.9375 6.855 -12.9375 7.875 C-16.41573115 9.03441038 -18.39645578 8.58320884 -21.9375 7.875 C-21.5 5.625 -21.5 5.625 -19.9375 2.875 C-13.69770349 -1.23669749 -7.09836168 -2.71852149 0 0 Z " fill="#F5F6FC" transform="translate(348.9375,179.125)"/>
<path d="M0 0 C8.62339122 0.46196739 14.52648368 5.14266973 20.12109375 11.35546875 C25 17.37311368 25 17.37311368 25 21 C21.57975798 19.85991933 21.20086519 19.18947816 19.25 16.3125 C14.4788489 9.73891403 9.54277675 5.90106798 2 3 C1.01 2.34 0.02 1.68 -1 1 C-0.67 0.67 -0.34 0.34 0 0 Z " fill="#DAE5EB" transform="translate(218,99)"/>
<path d="M0 0 C4.87677706 2.78672975 7.10459828 6.96481491 8.875 12.1875 C9.1225 13.280625 9.37 14.37375 9.625 15.5 C9.83125 16.304375 10.0375 17.10875 10.25 17.9375 C10.37375 18.453125 10.4975 18.96875 10.625 19.5 C9.965 18.84 9.305 18.18 8.625 17.5 C8.295 17.83 7.965 18.16 7.625 18.5 C5.69832493 18.58748207 3.76848139 18.60697334 1.83984375 18.59765625 C0.67001953 18.59443359 -0.49980469 18.59121094 -1.70507812 18.58789062 C-3.55262695 18.57532227 -3.55262695 18.57532227 -5.4375 18.5625 C-7.29084961 18.55573242 -7.29084961 18.55573242 -9.18164062 18.54882812 C-12.24614117 18.53699608 -15.31054721 18.52051173 -18.375 18.5 C-18.375 18.17 -18.375 17.84 -18.375 17.5 C-10.125 17.5 -1.875 17.5 6.625 17.5 C5.14 13.045 5.14 13.045 3.625 8.5 C3.295 7.18 2.965 5.86 2.625 4.5 C0.24874655 3.31608777 0.24874655 3.31608777 -2.375 2.5 C-3.365 1.84 -4.355 1.18 -5.375 0.5 C-2.375 -0.5 -2.375 -0.5 0 0 Z " fill="#E9EBF5" transform="translate(319.375,179.5)"/>
<path d="M0 0 C3 1 3 1 4.81640625 3.03515625 C7.64538123 5.58072765 9.18329809 5.50851265 12.9375 5.4375 C13.95714844 5.43621094 14.97679687 5.43492187 16.02734375 5.43359375 C19.32927341 4.95197195 21.28021337 3.88832331 24 2 C23.8125 3.8125 23.8125 3.8125 23 6 C19.24602034 8.9811015 15.74114775 9.75046591 11 10 C5.97397834 8.99479567 3.25854616 6.92942331 0 3 C0 2.01 0 1.02 0 0 Z " fill="#DFE0ED" transform="translate(299,205)"/>
<path d="M0 0 C1.32 0 2.64 0 4 0 C3.84402344 0.65613281 3.68804687 1.31226563 3.52734375 1.98828125 C2.75081234 6.42313844 2.64641077 10.88916367 2.48242188 15.38085938 C2.21603626 20.78396374 2.21603626 20.78396374 0 23 C-3.125 23.125 -3.125 23.125 -6 23 C-5.67 21.68 -5.34 20.36 -5 19 C-3.35 19 -1.7 19 0 19 C0 12.73 0 6.46 0 0 Z " fill="#E7E0EF" transform="translate(429,192)"/>
<path d="M0 0 C0.33 0 0.66 0 1 0 C1.02694851 1.95825873 1.04637218 3.91662226 1.0625 5.875 C1.07410156 6.96554688 1.08570313 8.05609375 1.09765625 9.1796875 C1 12 1 12 0 14 C1.98 14 3.96 14 6 14 C6.33 13.01 6.66 12.02 7 11 C8 12 8 12 8.0625 14.5625 C8.041875 15.366875 8.02125 16.17125 8 17 C5.03 17.33 2.06 17.66 -1 18 C-2.20287276 11.50448709 -1.58444052 6.39014027 0 0 Z " fill="#FBF5FC" transform="translate(451,197)"/>
<path d="M0 0 C0 0.66 0 1.32 0 2 C-0.99 2 -1.98 2 -3 2 C-3 2.66 -3 3.32 -3 4 C-3.969375 4.45375 -4.93875 4.9075 -5.9375 5.375 C-9.07079582 6.65786221 -9.07079582 6.65786221 -10 9 C-10.99 9 -11.98 9 -13 9 C-13 9.66 -13 10.32 -13 11 C-13.99 11 -14.98 11 -16 11 C-16.66 12.32 -17.32 13.64 -18 15 C-18.99 14.67 -19.98 14.34 -21 14 C-15.71171285 7.21976592 -9.25344073 0 0 0 Z " fill="#2ECF9C" transform="translate(203,139)"/>
<path d="M0 0 C1.33895632 1.66215268 2.67130142 3.32963607 4 5 C4.5775 5.721875 5.155 6.44375 5.75 7.1875 C7 9 7 9 7 11 C7.5775 11.268125 8.155 11.53625 8.75 11.8125 C11.0325868 13.01719859 12.9737942 14.40798115 15 16 C13.68 16 12.36 16 11 16 C10.67 16.66 10.34 17.32 10 18 C8.52997374 16.46947884 7.07443944 14.92503146 5.625 13.375 C4.40683594 12.08722656 4.40683594 12.08722656 3.1640625 10.7734375 C0.8920069 7.86159729 -0.16697505 5.58301092 -1 2 C-0.67 1.34 -0.34 0.68 0 0 Z " fill="#D1DAE6" transform="translate(105,214)"/>
<path d="M0 0 C2.5 0.3125 2.5 0.3125 5 1 C6.1482685 3.296537 6.11561175 4.58313167 6.09765625 7.1328125 C6.09443359 7.93847656 6.09121094 8.74414062 6.08789062 9.57421875 C6.07951172 10.41597656 6.07113281 11.25773438 6.0625 12.125 C6.05798828 12.97449219 6.05347656 13.82398438 6.04882812 14.69921875 C6.03702874 16.79950909 6.01909306 18.8997633 6 21 C6.66 21.33 7.32 21.66 8 22 C6.68 22.33 5.36 22.66 4 23 C4 16.73 4 10.46 4 4 C2.35 4 0.7 4 -1 4 C-1 1 -1 1 0 0 Z " fill="#EFEBF2" transform="translate(425,164)"/>
<path d="M0 0 C0.66 1.32 1.32 2.64 2 4 C4.43847451 3.88602456 6.87513174 3.75929026 9.3125 3.625 C10.00279297 3.5940625 10.69308594 3.563125 11.40429688 3.53125 C15.06990789 3.31875081 16.87900792 3.08066139 20 1 C20.66 2.32 21.32 3.64 22 5 C21 6 21 6 18.86694336 6.11352539 C17.95050049 6.10828857 17.03405762 6.10305176 16.08984375 6.09765625 C15.10048828 6.09443359 14.11113281 6.09121094 13.09179688 6.08789062 C12.05087891 6.07951172 11.00996094 6.07113281 9.9375 6.0625 C8.89271484 6.05798828 7.84792969 6.05347656 6.77148438 6.04882812 C4.1809334 6.03699913 1.59049441 6.02051689 -1 6 C-0.67 4.02 -0.34 2.04 0 0 Z " fill="#E7EBEF" transform="translate(302,189)"/>
<path d="M0 0 C0.66 0 1.32 0 2 0 C2.144375 1.093125 2.28875 2.18625 2.4375 3.3125 C2.8768027 5.29592673 2.8768027 5.29592673 4 7 C6.31996758 8.09530068 8.49573557 8.67350618 11.00390625 9.19921875 C11.66261719 9.46347656 12.32132813 9.72773438 13 10 C13.77734375 12.08203125 13.77734375 12.08203125 14 14 C14.66 14 15.32 14 16 14 C16.33 15.98 16.66 17.96 17 20 C16.7525 19.38125 16.505 18.7625 16.25 18.125 C14.73071499 15.54221549 13.73649514 15.14020631 11 14 C10.01 13.484375 9.02 12.96875 8 12.4375 C4.91816892 10.83752449 4.91816892 10.83752449 1 10 C0.67 6.7 0.34 3.4 0 0 Z " fill="#CEFBEA" transform="translate(216,128)"/>
<path d="M0 0 C0 0.66 0 1.32 0 2 C1.32 2 2.64 2 4 2 C4 2.66 4 3.32 4 4 C2.88625 3.7525 2.88625 3.7525 1.75 3.5 C-5.35284051 2.5529546 -12.3810187 1.92733529 -19 5 C-19 4.01 -19 3.02 -19 2 C-12.68630668 -1.22401361 -6.8586516 -2.2862172 0 0 Z " fill="#C6F7F3" transform="translate(156,118)"/>
<path d="M0 0 C0.99 0.33 1.98 0.66 3 1 C3 1.99 3 2.98 3 4 C1.80375 3.79375 0.6075 3.5875 -0.625 3.375 C-4.5576018 2.86418162 -7.3121243 3.43265283 -11 5 C-11 6.32 -11 7.64 -11 9 C-11.66 9 -12.32 9 -13 9 C-13.8125 7.3125 -13.8125 7.3125 -14 5 C-10.18452795 -0.59602568 -6.25629878 -0.82011407 0 0 Z " fill="#E2E0E9" transform="translate(483,184)"/>
<path d="M0 0 C9.17669865 -0.59204507 16.34168187 1.89445458 24 7 C22 8 22 8 20.08984375 7.4765625 C19.02443359 7.05503906 19.02443359 7.05503906 17.9375 6.625 C17.22464844 6.34914062 16.51179688 6.07328125 15.77734375 5.7890625 C14 5 14 5 13 4 C11.15108054 3.76636119 9.29511969 3.58696365 7.4375 3.4375 C6.42558594 3.35371094 5.41367188 3.26992187 4.37109375 3.18359375 C3.19740234 3.09271484 3.19740234 3.09271484 2 3 C2 2.34 2 1.68 2 1 C1.34 0.67 0.68 0.34 0 0 Z " fill="#0194AE" transform="translate(131,138)"/>
<path d="M0 0 C-0.66 0 -1.32 0 -2 0 C-2.33 0.99 -2.66 1.98 -3 3 C-4.55859375 4.60546875 -4.55859375 4.60546875 -6.4375 6.1875 C-7.05496094 6.71730469 -7.67242187 7.24710938 -8.30859375 7.79296875 C-10 9 -10 9 -12 9 C-12 9.66 -12 10.32 -12 11 C-13.96147874 12.38938077 -15.96166576 13.7260411 -18 15 C-17.42906864 11.6885981 -16.45395174 10.24945577 -14 8 C-13.67 7.34 -13.34 6.68 -13 6 C-12.01 5.67 -11.02 5.34 -10 5 C-9.67 4.34 -9.34 3.68 -9 3 C-8.34 3 -7.68 3 -7 3 C-7 2.34 -7 1.68 -7 1 C-3.375 -1.125 -3.375 -1.125 0 0 Z " fill="#4BC284" transform="translate(210,193)"/>
<path d="M0 0 C0.87527344 -0.01417969 1.75054687 -0.02835938 2.65234375 -0.04296875 C5.0625 0.1875 5.0625 0.1875 8.0625 2.1875 C8.49382515 6.24195642 8.36269361 7.73720958 6.0625 11.1875 C5.4025 11.1875 4.7425 11.1875 4.0625 11.1875 C4.413125 10.23875 4.76375 9.29 5.125 8.3125 C6.41276777 5.31689828 6.41276777 5.31689828 5.0625 3.1875 C-2.15782206 2.8881013 -2.15782206 2.8881013 -8.9375 5.1875 C-6.7795624 0.4092096 -5.13391935 0.03769397 0 0 Z " fill="#EEEEF5" transform="translate(340.9375,195.8125)"/>
<path d="M0 0 C0.66 0.33 1.32 0.66 2 1 C1.67 2.98 1.34 4.96 1 7 C-0.11375 6.50886719 -1.2275 6.01773438 -2.375 5.51171875 C-7.29988576 3.66488659 -11.796143 3.6566241 -17 3.8125 C-18.30517578 3.83280273 -18.30517578 3.83280273 -19.63671875 3.85351562 C-21.75808627 3.88848322 -23.87912974 3.9422747 -26 4 C-26 3.34 -26 2.68 -26 2 C-17.42 2 -8.84 2 0 2 C0 1.34 0 0.68 0 0 Z " fill="#D3D6DF" transform="translate(327,196)"/>
<path d="M0 0 C3.33746914 3.84956758 3.43667919 6.44045685 3.3046875 11.3828125 C2.85027711 15.28608125 1.59225407 18.41742833 0 22 C-0.97556564 19.07330309 -1.0606341 17.55938679 -0.87890625 14.55078125 C-0.83056641 13.70322266 -0.78222656 12.85566406 -0.73242188 11.98242188 C-0.67634766 11.10134766 -0.62027344 10.22027344 -0.5625 9.3125 C-0.51029297 8.41982422 -0.45808594 7.52714844 -0.40429688 6.60742188 C-0.2747182 4.4045844 -0.13975754 2.20221127 0 0 Z " fill="#5BC48B" transform="translate(231,146)"/>
<path d="M0 0 C0.33 0.66 0.66 1.32 1 2 C0.00390625 4.3828125 0.00390625 4.3828125 -1.4375 7.125 C-1.91058594 8.03507813 -2.38367188 8.94515625 -2.87109375 9.8828125 C-3.24363281 10.58148438 -3.61617187 11.28015625 -4 12 C-4.66 12 -5.32 12 -6 12 C-6.226875 12.763125 -6.45375 13.52625 -6.6875 14.3125 C-8.27985952 17.57304568 -9.72736399 18.5273138 -13 20 C-13.66 19.67 -14.32 19.34 -15 19 C-14.41992188 18.38253906 -13.83984375 17.76507813 -13.2421875 17.12890625 C-8.24925367 11.71577502 -3.86309662 6.27185098 0 0 Z " fill="#C8F6DE" transform="translate(229,169)"/>
<path d="M0 0 C2.75 -0.375 2.75 -0.375 5 0 C1.72773556 3.38133992 -1.67398438 6.6137516 -5.125 9.8125 C-6.39730469 10.99779297 -6.39730469 10.99779297 -7.6953125 12.20703125 C-10 14 -10 14 -13 14 C-12.34 12.68 -11.68 11.36 -11 10 C-10.01 10 -9.02 10 -8 10 C-7.67 9.01 -7.34 8.02 -7 7 C-6.01 6.67 -5.02 6.34 -4 6 C-3.38125 4.989375 -2.7625 3.97875 -2.125 2.9375 C-1.073125 1.4834375 -1.073125 1.4834375 0 0 Z " fill="#4EC086" transform="translate(187,208)"/>
<path d="M0 0 C2.82437147 5.55689347 3.20376278 9.7852353 3 16 C2.67 16.33 2.34 16.66 2 17 C-0.33944736 16.71269945 -2.6739143 16.38063221 -5 16 C-4.34 15.01 -3.68 14.02 -3 13 C-1.68 13.33 -0.36 13.66 1 14 C0.83628906 13.44828125 0.67257812 12.8965625 0.50390625 12.328125 C-0.05760414 9.73385993 -0.09739008 7.40164589 -0.0625 4.75 C-0.05347656 3.85796875 -0.04445313 2.9659375 -0.03515625 2.046875 C-0.02355469 1.37140625 -0.01195312 0.6959375 0 0 Z " fill="#ECE6F2" transform="translate(493,198)"/>
<path d="M0 0 C5.59363406 4.06133537 10.85963514 8.3791401 16 13 C15.01 13.33 14.02 13.66 13 14 C12.34 13.67 11.68 13.34 11 13 C11 12.34 11 11.68 11 11 C9.68 10.67 8.36 10.34 7 10 C7 9.34 7 8.68 7 8 C6.401875 7.731875 5.80375 7.46375 5.1875 7.1875 C2.98180967 5.99012525 1.56416813 4.95521016 0 3 C0 2.01 0 1.02 0 0 Z " fill="#DDFAFE" transform="translate(148,202)"/>
<path d="M0 0 C0.66 0.33 1.32 0.66 2 1 C2 7.93 2 14.86 2 22 C1.01 22 0.02 22 -1 22 C-0.67 14.74 -0.34 7.48 0 0 Z " fill="#EEEAF2" transform="translate(410,190)"/>
<path d="M0 0 C0.33 0 0.66 0 1 0 C1.19511725 2.74965228 1.38136433 5.49942132 1.5625 8.25 C1.61857422 9.02730469 1.67464844 9.80460938 1.73242188 10.60546875 C1.78076172 11.35957031 1.82910156 12.11367187 1.87890625 12.890625 C1.94960327 13.92751465 1.94960327 13.92751465 2.02172852 14.98535156 C1.99853136 17.13617072 1.5995764 18.94084871 1 21 C-0.65 21 -2.3 21 -4 21 C-4.33 19.68 -4.66 18.36 -5 17 C-3.68 17 -2.36 17 -1 17 C-0.67 11.39 -0.34 5.78 0 0 Z " fill="#F1E9F4" transform="translate(598,194)"/>
<path d="M0 0 C0.99 0.33 1.98 0.66 3 1 C2.34 1 1.68 1 1 1 C1 1.66 1 2.32 1 3 C-1.5614657 5.29648649 -2.47967572 6 -6 6 C-6.268125 6.598125 -6.53625 7.19625 -6.8125 7.8125 C-8.02493496 10.04593283 -8.94652273 11.49938199 -11 13 C-13.1015625 12.57421875 -13.1015625 12.57421875 -15 12 C-3.95890411 2 -3.95890411 2 0 2 C0 1.34 0 0.68 0 0 Z " fill="#E7FDF2" transform="translate(199,203)"/>
<path d="M0 0 C3 0 3 0 4.6875 1.3125 C6 3 6 3 6 6 C7.32 6.66 8.64 7.32 10 8 C10 8.99 10 9.98 10 11 C10.66 11 11.32 11 12 11 C11.67 11.66 11.34 12.32 11 13 C9.15798847 11.57363718 7.32659413 10.13355368 5.5 8.6875 C4.4790625 7.88699219 3.458125 7.08648437 2.40625 6.26171875 C1.6121875 5.51535156 0.818125 4.76898438 0 4 C0 2.66666667 0 1.33333333 0 0 Z " fill="#2C91B1" transform="translate(144,195)"/>
<path d="M0 0 C0.33 0 0.66 0 1 0 C1.07347656 1.17369141 1.07347656 1.17369141 1.1484375 2.37109375 C1.22320312 3.38300781 1.29796875 4.39492187 1.375 5.4375 C1.44460938 6.44683594 1.51421875 7.45617187 1.5859375 8.49609375 C1.72257812 9.32238281 1.85921875 10.14867187 2 11 C2.66 11.33 3.32 11.66 4 12 C3.67 12.99 3.34 13.98 3 15 C2.34 15 1.68 15 1 15 C1 15.66 1 16.32 1 17 C0.34 17 -0.32 17 -1 17 C-1.02684679 14.35409986 -1.04676357 11.70846904 -1.0625 9.0625 C-1.07087891 8.30775391 -1.07925781 7.55300781 -1.08789062 6.77539062 C-1.09652441 4.85005687 -1.05224333 2.92464419 -1 1 C-0.67 0.67 -0.34 0.34 0 0 Z " fill="#EFEEF2" transform="translate(390,169)"/>
<path d="M0 0 C0.44730469 0.38414062 0.89460937 0.76828125 1.35546875 1.1640625 C3.18856082 2.62584594 4.92535261 3.90444816 7 5 C10.60843853 4.34392027 12.63005465 2.74414725 15 0 C15.66 0.33 16.32 0.66 17 1 C16.04585337 3.38536657 15.40189883 4.73911831 13.21875 6.15625 C10.59753612 7.15304965 9.00664899 7.03038956 6.25 6.625 C5.45078125 6.51414063 4.6515625 6.40328125 3.828125 6.2890625 C3.22484375 6.19367188 2.6215625 6.09828125 2 6 C1.34 4.02 0.68 2.04 0 0 Z " fill="#C8F3EC" transform="translate(166,217)"/>
<path d="M0 0 C0.33 0 0.66 0 1 0 C1 10.56 1 21.12 1 32 C0.01 32 -0.98 32 -2 32 C-1.84152588 31.30688721 -1.68305176 30.61377441 -1.51977539 29.8996582 C-0.95883527 26.77035535 -0.78899558 23.78258111 -0.68359375 20.60546875 C-0.64169922 19.40341797 -0.59980469 18.20136719 -0.55664062 16.96289062 C-0.51732422 15.71701172 -0.47800781 14.47113281 -0.4375 13.1875 C-0.39431641 11.92228516 -0.35113281 10.65707031 -0.30664062 9.35351562 C-0.2007553 6.23578111 -0.09867595 3.11796965 0 0 Z " fill="#DEE1EB" transform="translate(260,179)"/>
<path d="M0 0 C2.475 0.99 2.475 0.99 5 2 C5 2.99 5 3.98 5 5 C5.61875 5.04125 6.2375 5.0825 6.875 5.125 C7.57625 5.41375 8.2775 5.7025 9 6 C10.25 9.0625 10.25 9.0625 11 12 C7.07279701 10.33849104 4.0720882 7.93555094 1 5 C0.125 2.1875 0.125 2.1875 0 0 Z " fill="#1889A8" transform="translate(135,186)"/>
<path d="M0 0 C0.33 0.66 0.66 1.32 1 2 C-0.093125 2.103125 -1.18625 2.20625 -2.3125 2.3125 C-5.86583431 2.72085898 -5.86583431 2.72085898 -7.9375 4.3125 C-9.35520885 6.23179989 -9.35520885 6.23179989 -9 10 C-10.32 10 -11.64 10 -13 10 C-12.70554242 6.56466156 -11.98263518 4.97701716 -9.875 2.1875 C-6.32886661 -0.51064497 -4.35229172 -0.42669527 0 0 Z " fill="#E3DDE6" transform="translate(551,183)"/>
<path d="M0 0 C1.125 1.75 1.125 1.75 2 4 C0.92886167 7.31079119 -0.01326353 8.00884235 -3 10 C-5.6875 10.125 -5.6875 10.125 -8 10 C-7.67 9.34 -7.34 8.68 -7 8 C-6.34 8 -5.68 8 -5 8 C-5 7.34 -5 6.68 -5 6 C-4.34 6 -3.68 6 -3 6 C-2.690625 5.195625 -2.38125 4.39125 -2.0625 3.5625 C-1 1 -1 1 0 0 Z " fill="#C5CDDD" transform="translate(240,216)"/>
<path d="M0 0 C1.67542976 0.28604898 3.34385343 0.61781233 5 1 C4.34 3.64 3.68 6.28 3 9 C1.68 9 0.36 9 -1 9 C-1.09765625 2.84765625 -1.09765625 2.84765625 -1 1 C-0.67 0.67 -0.34 0.34 0 0 Z " fill="#FDF9FE" transform="translate(386,167)"/>
<path d="M0 0 C0.33 0 0.66 0 1 0 C1 2.64 1 5.28 1 8 C1.66 8 2.32 8 3 8 C3 8.99 3 9.98 3 11 C1.02 11 -0.96 11 -3 11 C-2.53199289 6.94393835 -2.12046792 3.53411321 0 0 Z " fill="#E2E0EA" transform="translate(385,203)"/>
<path d="M0 0 C0 3 0 3 -1.0625 5.0625 C-1.371875 5.701875 -1.68125 6.34125 -2 7 C-1.67 7.66 -1.34 8.32 -1 9 C-3.31 9.33 -5.62 9.66 -8 10 C-8 9.34 -8 8.68 -8 8 C-7.34 8 -6.68 8 -6 8 C-5.62875 6.576875 -5.62875 6.576875 -5.25 5.125 C-4 2 -4 2 -1.875 0.625 C-0.946875 0.315625 -0.946875 0.315625 0 0 Z " fill="#46C6B1" transform="translate(181,133)"/>
<path d="M0 0 C5.68046944 0.94055703 9.72424312 1.86217076 14 6 C13.67 6.99 13.34 7.98 13 9 C11.989375 8.21625 10.97875 7.4325 9.9375 6.625 C6.37366716 4.05758573 3.26443627 2.95732243 -1 2 C-0.67 1.34 -0.34 0.68 0 0 Z " fill="#E3EEF1" transform="translate(218,99)"/>
<path d="M0 0 C2.4375 0.8125 2.4375 0.8125 5 2 C5.33 2.99 5.66 3.98 6 5 C13.56407533 5.20589721 13.56407533 5.20589721 21 4 C20.01 5.485 20.01 5.485 19 7 C13.97895349 7.83684109 9.21793863 7.42734689 4.4375 5.75 C1.9583843 3.97012206 0.98473352 2.85572721 0 0 Z " fill="#EEE7F2" transform="translate(536,208)"/>
<path d="M0 0 C0 0.99 0 1.98 0 3 C-5.61 3 -11.22 3 -17 3 C-16.67 2.34 -16.34 1.68 -16 1 C-12.91015625 0.5859375 -12.91015625 0.5859375 -9.0625 0.375 C-7.79535156 0.30023438 -6.52820313 0.22546875 -5.22265625 0.1484375 C-3.48291236 0.06830384 -1.74158842 0 0 0 Z " fill="#F3F2F8" transform="translate(288,186)"/>
<path d="M0 0 C0.33 0.99 0.66 1.98 1 3 C-2.0808294 5.34729859 -4.24990919 6.89498729 -8.125 7.4375 C-11.31446819 6.95214614 -12.54065016 5.98964569 -15 4 C-13.87851562 3.94392578 -13.87851562 3.94392578 -12.734375 3.88671875 C-11.74953125 3.82097656 -10.7646875 3.75523437 -9.75 3.6875 C-8.77546875 3.62949219 -7.8009375 3.57148438 -6.796875 3.51171875 C-3.74658389 2.95363476 -2.29288724 2.03630224 0 0 Z " fill="#E9EBF4" transform="translate(322,207)"/>
<path d="M0 0 C0 0.99 0 1.98 0 3 C-7.92 3.495 -7.92 3.495 -16 4 C-15.67 3.01 -15.34 2.02 -15 1 C-12.8750734 0.83240016 -10.75005624 0.66594799 -8.625 0.5 C-7.44164062 0.4071875 -6.25828125 0.314375 -5.0390625 0.21875 C-3.36213157 0.09804546 -1.68126944 0 0 0 Z " fill="#ECEBF2" transform="translate(349,191)"/>
<path d="M0 0 C3.03450991 0.94828435 5.37379955 2.16095264 8 3.9375 C7.67 4.5975 7.34 5.2575 7 5.9375 C6.38511719 5.69773438 5.77023437 5.45796875 5.13671875 5.2109375 C4.32847656 4.91445312 3.52023437 4.61796875 2.6875 4.3125 C1.88699219 4.01085937 1.08648437 3.70921875 0.26171875 3.3984375 C-0.85783203 3.17027344 -0.85783203 3.17027344 -2 2.9375 C-2.99 3.5975 -3.98 4.2575 -5 4.9375 C-5.99 4.6075 -6.98 4.2775 -8 3.9375 C-3.86032138 -0.08042336 -3.86032138 -0.08042336 0 0 Z " fill="#E8EAF3" transform="translate(312,182.0625)"/>
<path d="M0 0 C0.33 0 0.66 0 1 0 C0.67 3.63 0.34 7.26 0 11 C-0.99 11.33 -1.98 11.66 -3 12 C-3.29344873 7.01137151 -3.05887078 4.03770942 0 0 Z " fill="#4DBAB1" transform="translate(134,126)"/>
<path d="M0 0 C1.46484375 1.23697917 2.9296875 2.47395833 4.39453125 3.7109375 C5.8655046 4.89201099 7.43037794 5.95358529 9 7 C5.18510326 8.46726798 2.70988378 7.43336419 -1 6 C-1.042721 4.33388095 -1.04063832 2.66617115 -1 1 C-0.67 0.67 -0.34 0.34 0 0 Z " fill="#EDEBF2" transform="translate(370,206)"/>
<path d="M0 0 C1.65 0 3.3 0 5 0 C4.360625 1.010625 3.72125 2.02125 3.0625 3.0625 C0.93151044 6.75219924 0.34460387 9.77860255 0 14 C-0.99 13.67 -1.98 13.34 -3 13 C-2.01 8.71 -1.02 4.42 0 0 Z " fill="#CBFAF9" transform="translate(131,124)"/>
<path d="M0 0 C-1.44424635 3.23861303 -3.25772247 5.61969163 -5.625 8.25 C-6.25664062 8.95640625 -6.88828125 9.6628125 -7.5390625 10.390625 C-8.02117187 10.92171875 -8.50328125 11.4528125 -9 12 C-9.33 11.01 -9.66 10.02 -10 9 C-9.67 8.34 -9.34 7.68 -9 7 C-8.34 7 -7.68 7 -7 7 C-6.731875 6.401875 -6.46375 5.80375 -6.1875 5.1875 C-3.37142857 0 -3.37142857 0 0 0 Z " fill="#4FC185" transform="translate(224,176)"/>
<path d="M0 0 C2.08326131 -0.02709444 4.16662441 -0.04643873 6.25 -0.0625 C7.41015625 -0.07410156 8.5703125 -0.08570313 9.765625 -0.09765625 C12.40977128 -0.01782092 14.49826091 0.21356222 17 1 C17 1.99 17 2.98 17 4 C16.443125 3.86722656 15.88625 3.73445312 15.3125 3.59765625 C10.2141299 2.41779695 5.20212559 1.56750461 0 1 C0 0.67 0 0.34 0 0 Z " fill="#18B5B9" transform="translate(132,137)"/>
<path d="M0 0 C0.66 0.33 1.32 0.66 2 1 C2 2.65 2 4.3 2 6 C-0.31 6.33 -2.62 6.66 -5 7 C-5 5.68 -5 4.36 -5 3 C-3.35 3 -1.7 3 0 3 C0 2.01 0 1.02 0 0 Z " fill="#EDE5F2" transform="translate(457,208)"/>
<path d="M0 0 C3.63 0 7.26 0 11 0 C11 1.65 11 3.3 11 5 C8.5625 4.625 8.5625 4.625 6 4 C5.67 3.34 5.34 2.68 5 2 C2.47266765 1.34444881 2.47266765 1.34444881 0 1 C0 0.67 0 0.34 0 0 Z " fill="#D1C9D8" transform="translate(552,198)"/>
<path d="M0 0 C0.66 0 1.32 0 2 0 C2.98248524 4.0527516 3.08159574 7.83861737 3 12 C2.01 11.67 1.02 11.34 0 11 C0 7.37 0 3.74 0 0 Z " fill="#F6EEFA" transform="translate(562,187)"/>
<path d="M0 0 C0.66 0 1.32 0 2 0 C1 3 1 3 -1.125 4.1875 C-4.57341145 5.16205106 -7.43112119 5.26436139 -11 5 C-11.99 4.34 -12.98 3.68 -14 3 C-13.15695312 2.95101562 -12.31390625 2.90203125 -11.4453125 2.8515625 C-10.34960938 2.77679688 -9.25390625 2.70203125 -8.125 2.625 C-6.48917969 2.52058594 -6.48917969 2.52058594 -4.8203125 2.4140625 C-1.86953526 2.26746509 -1.86953526 2.26746509 0 0 Z " fill="#E0D8E6" transform="translate(484,209)"/>
<path d="M0 0 C0.66 0 1.32 0 2 0 C2 0.99 2 1.98 2 3 C2.66 3 3.32 3 4 3 C4 3.99 4 4.98 4 6 C1.69 6 -0.62 6 -3 6 C-2.42655063 3.13275314 -2.1385485 2.1385485 0 0 Z " fill="#DADAE3" transform="translate(347,208)"/>
<path d="M0 0 C1.32 0 2.64 0 4 0 C3.84660156 0.67417969 3.69320313 1.34835938 3.53515625 2.04296875 C2.91516143 5.46877952 2.6647426 8.83893447 2.4375 12.3125 C2.35371094 13.56675781 2.26992188 14.82101563 2.18359375 16.11328125 C2.12300781 17.06589844 2.06242187 18.01851562 2 19 C1.67 19 1.34 19 1 19 C0.67 12.73 0.34 6.46 0 0 Z " fill="#F0ECF2" transform="translate(429,192)"/>
<path d="M0 0 C0 0.99 0 1.98 0 3 C-0.66 3 -1.32 3 -2 3 C-2.2475 3.804375 -2.495 4.60875 -2.75 5.4375 C-4 8 -4 8 -6.125 8.8125 C-6.74375 8.874375 -7.3625 8.93625 -8 9 C-6.64531705 4.12314139 -4.28324091 2.51407619 0 0 Z " fill="#E5FEF2" transform="translate(217,187)"/>
<path d="M0 0 C3.3422219 0.91911102 5.99593549 2.10524015 8 5 C7.6875 7.1875 7.6875 7.1875 7 9 C6.46375 8.21625 5.9275 7.4325 5.375 6.625 C2.69757158 3.66573701 0.81566975 2.95391744 -3 2 C-2.01 1.34 -1.02 0.68 0 0 Z " fill="#E8E9F1" transform="translate(344,178)"/>
<path d="M0 0 C1.32 1.32 2.64 2.64 4 4 C2.68 5.32 1.36 6.64 0 8 C-4.875 5.375 -4.875 5.375 -6 2 C-4.02 2.66 -2.04 3.32 0 4 C0 2.68 0 1.36 0 0 Z " fill="#EBFDFA" transform="translate(174,128)"/>
<path d="M0 0 C0.99386719 0.00902344 1.98773438 0.01804687 3.01171875 0.02734375 C4.15060547 0.04474609 4.15060547 0.04474609 5.3125 0.0625 C5.3125 0.3925 5.3125 0.7225 5.3125 1.0625 C4.49265625 1.17207031 3.6728125 1.28164062 2.828125 1.39453125 C1.21164063 1.63236328 1.21164063 1.63236328 -0.4375 1.875 C-1.50484375 2.02582031 -2.5721875 2.17664063 -3.671875 2.33203125 C-6.74201094 3.07570407 -8.34830478 3.99015472 -10.6875 6.0625 C-11.3475 5.7325 -12.0075 5.4025 -12.6875 5.0625 C-8.57845007 0.67006731 -5.94216039 -0.06990777 0 0 Z " fill="#47B0A5" transform="translate(147.6875,119.9375)"/>
<path d="M0 0 C0.33 0.66 0.66 1.32 1 2 C-2.96 2.66 -6.92 3.32 -11 4 C-10 1 -10 1 -7.75 -0.25 C-4.68521397 -1.08585074 -2.99580623 -0.99860208 0 0 Z " fill="#E6E0EB" transform="translate(589,185)"/>
<path d="M0 0 C-2.71182212 2.60334924 -3.89133813 2.99456691 -7.75 3.1875 C-8.8225 3.125625 -9.895 3.06375 -11 3 C-7.16077997 -1.01373003 -5.47880919 -1.07194093 0 0 Z " fill="#1B85A7" transform="translate(133,139)"/>
<path d="M0 0 C0.66 0 1.32 0 2 0 C2 0.66 2 1.32 2 2 C3.98 1.67 5.96 1.34 8 1 C8 1.99 8 2.98 8 4 C4.52176885 5.15941038 2.54104422 4.70820884 -1 4 C-0.67 2.68 -0.34 1.36 0 0 Z " fill="#E6E7F5" transform="translate(328,183)"/>
<path d="M0 0 C0.99 0.66 1.98 1.32 3 2 C2.360625 2.2475 1.72125 2.495 1.0625 2.75 C-1.18741541 3.81562433 -1.18741541 3.81562433 -1.75 6.125 C-1.8325 6.74375 -1.915 7.3625 -2 8 C-2.66 8 -3.32 8 -4 8 C-4 8.99 -4 9.98 -4 11 C-4.66 11 -5.32 11 -6 11 C-5.55530671 5.96014269 -3.28656638 3.62365012 0 0 Z " fill="#368AA5" transform="translate(121,141)"/>
<path d="M0 0 C2 1 2 1 3.3125 3.9375 C4.72400184 7.17522659 4.72400184 7.17522659 7.6875 8.375 C8.450625 8.58125 9.21375 8.7875 10 9 C9.01 9.66 8.02 10.32 7 11 C3.8255824 9.90537324 3.01085843 9.01822665 1.25 6.0625 C0 3 0 3 0 0 Z " fill="#E9EBF4" transform="translate(326,202)"/>
<path d="M0 0 C1.98 0 3.96 0 6 0 C5.95875 0.763125 5.9175 1.52625 5.875 2.3125 C5.77919176 5.22718416 5.77919176 5.22718416 8 8 C7.01 8 6.02 8 5 8 C4.54625 7.05125 4.0925 6.1025 3.625 5.125 C2.19761746 1.99686321 2.19761746 1.99686321 0 0 Z " fill="#EFEBED" transform="translate(536,198)"/>
<path d="M0 0 C0.66 0 1.32 0 2 0 C2.70226141 1.24176695 3.38629109 2.49385599 4.0625 3.75 C4.44535156 4.44609375 4.82820313 5.1421875 5.22265625 5.859375 C6.1312406 8.36140628 5.88336837 9.5332355 5 12 C1.66226291 8.35883227 1.02135098 4.71392758 0 0 Z " fill="#D6F9FD" transform="translate(114,163)"/>
<path d="M0 0 C1.20220203 3.53094302 0.79532349 6.12898982 0.0625 9.75 C-0.13214844 10.73484375 -0.32679688 11.7196875 -0.52734375 12.734375 C-0.68332031 13.48203125 -0.83929688 14.2296875 -1 15 C-1.33 15 -1.66 15 -2 15 C-2.05406122 13.06280622 -2.09282025 11.12518079 -2.125 9.1875 C-2.14820313 8.10855469 -2.17140625 7.02960938 -2.1953125 5.91796875 C-2 3 -2 3 0 0 Z " fill="#20C7A7" transform="translate(175,161)"/>
<path d="M0 0 C1.85546875 0.2578125 1.85546875 0.2578125 4 1 C5.30078125 2.7421875 5.30078125 2.7421875 6.3125 4.875 C6.83263672 5.92300781 6.83263672 5.92300781 7.36328125 6.9921875 C8 9 8 9 7 12 C6.01993141 10.37554381 5.04097364 8.75041739 4.0625 7.125 C3.51722656 6.22007812 2.97195312 5.31515625 2.41015625 4.3828125 C1.56101983 2.94798364 0.74562276 1.49124552 0 0 Z " fill="#1ABCBD" transform="translate(162,152)"/>
<path d="M0 0 C2.95409701 1.37154504 5.44008376 2.98863724 8 5 C6.68 5 5.36 5 4 5 C3.67 5.66 3.34 6.32 3 7 C0 2.25 0 2.25 0 0 Z " fill="#CAD1E0" transform="translate(112,225)"/>
<path d="M0 0 C3.48331435 3.01887244 4.79157144 5.56909529 6 10 C3 9 3 9 1.3125 6.6875 C0 4 0 4 0 0 Z " fill="#4BB9AC" transform="translate(167,130)"/>
<path d="M0 0 C3.93809611 3.76687454 3.93809611 3.76687454 4.09765625 6.9453125 C4.06510417 8.96354167 4.03255208 10.98177083 4 13 C1.99706653 9.99559979 1.50728374 8.29006055 0.875 4.8125 C0.70742187 3.91144531 0.53984375 3.01039063 0.3671875 2.08203125 C0.24601563 1.39496094 0.12484375 0.70789063 0 0 Z " fill="#61C6B1" transform="translate(213,125)"/>
<path d="M0 0 C2.64 0.66 5.28 1.32 8 2 C8 3.98 8 5.96 8 8 C6.85073734 7.04578192 5.70569459 6.08647955 4.5625 5.125 C3.92441406 4.59132813 3.28632813 4.05765625 2.62890625 3.5078125 C1 2 1 2 0 0 Z " fill="#D2FAF7" transform="translate(208,120)"/>
<path d="M0 0 C5.75 3.625 5.75 3.625 8 7 C6.35 6.67 4.7 6.34 3 6 C3 5.34 3 4.68 3 4 C2.01 4 1.02 4 0 4 C0 2.68 0 1.36 0 0 Z " fill="#C7F4F9" transform="translate(156,209)"/>
<path d="M0 0 C3.11954738 0.33724836 4.6209965 0.6209965 6.875 2.875 C7.24625 3.57625 7.6175 4.2775 8 5 C7.67 5.99 7.34 6.98 7 8 C5.83035398 6.8572081 4.66435444 5.71068285 3.5 4.5625 C2.8503125 3.92441406 2.200625 3.28632813 1.53125 2.62890625 C0 1 0 1 0 0 Z " fill="#348EA9" transform="translate(128,182)"/>
<path d="M0 0 C1.67542976 0.28604898 3.34385343 0.61781233 5 1 C5 1.99 5 2.98 5 4 C3.02 4 1.04 4 -1 4 C-1 1 -1 1 0 0 Z " fill="#E8E2EE" transform="translate(425,164)"/>
<path d="M0 0 C0.66 0 1.32 0 2 0 C2.33 2.31 2.66 4.62 3 7 C2.67 6.34 2.34 5.68 2 5 C0.35 5 -1.3 5 -3 5 C-1.625 2.5 -1.625 2.5 0 0 Z " fill="#EAE8F6" transform="translate(361,163)"/>
<path d="M0 0 C0.99 0.33 1.98 0.66 3 1 C2.01 1.33 1.02 1.66 0 2 C0 2.66 0 3.32 0 4 C-1.96147874 5.38938077 -3.96166576 6.7260411 -6 8 C-5.66354211 4.85972637 -4.94763914 3.94901705 -2.625 1.6875 C-1.75875 1.130625 -0.8925 0.57375 0 0 Z " fill="#52BA7F" transform="translate(198,200)"/>
<path d="M0 0 C3 2 3 2 3.51171875 4.1640625 C3.56972656 4.97617188 3.62773437 5.78828125 3.6875 6.625 C3.75324219 7.44226563 3.81898438 8.25953125 3.88671875 9.1015625 C3.92410156 9.72804687 3.96148437 10.35453125 4 11 C3.34 10.67 2.68 10.34 2 10 C1.3671875 7.71484375 1.3671875 7.71484375 0.875 4.9375 C0.70742188 4.01839844 0.53984375 3.09929687 0.3671875 2.15234375 C0.24601562 1.44207031 0.12484375 0.73179687 0 0 Z " fill="#EFEEF3" transform="translate(403,184)"/>
<path d="M0 0 C0 3.39593478 -0.52165948 4.06619881 -2.5 6.6875 C-2.9640625 7.31011719 -3.428125 7.93273437 -3.90625 8.57421875 C-4.2671875 9.04472656 -4.628125 9.51523438 -5 10 C-5.66 9.34 -6.32 8.68 -7 8 C-4.69 5.36 -2.38 2.72 0 0 Z " fill="#5DC1B0" transform="translate(185,125)"/>
<path d="M0 0 C0.66 0 1.32 0 2 0 C0.84826645 2.46800047 -0.04783565 4.04783565 -2 6 C-2.99 6 -3.98 6 -5 6 C-4.34 4.68 -3.68 3.36 -3 2 C-2.01 2 -1.02 2 0 2 C0 1.34 0 0.68 0 0 Z " fill="#45B888" transform="translate(179,216)"/>
<path d="M0 0 C1.98 0 3.96 0 6 0 C6 0.99 6 1.98 6 3 C4.02 3 2.04 3 0 3 C0 2.01 0 1.02 0 0 Z " fill="#E7DFEB" transform="translate(510,212)"/>
<path d="M0 0 C0 0.33 0 0.66 0 1 C-1.98 1 -3.96 1 -6 1 C-6 1.66 -6 2.32 -6 3 C-7.65 3.66 -9.3 4.32 -11 5 C-8.45499142 -0.63537615 -5.97208347 -0.11059414 0 0 Z " fill="#E1E0EB" transform="translate(343,196)"/>
<path d="M0 0 C-0.33 0.99 -0.66 1.98 -1 3 C-2.84765625 3.73046875 -2.84765625 3.73046875 -5.0625 4.1875 C-5.79597656 4.34605469 -6.52945313 4.50460938 -7.28515625 4.66796875 C-8.13400391 4.83232422 -8.13400391 4.83232422 -9 5 C-8.67 4.01 -8.34 3.02 -8 2 C-5.27366306 0.89786379 -2.95855967 0 0 0 Z " fill="#E8FDFD" transform="translate(129,135)"/>
<path d="M0 0 C1.98 0.99 1.98 0.99 4 2 C4 2.99 4 3.98 4 5 C4.66 5 5.32 5 6 5 C5.67 5.66 5.34 6.32 5 7 C2.5 5.1875 2.5 5.1875 0 3 C0 2.01 0 1.02 0 0 Z " fill="#4095B2" transform="translate(150,201)"/>
<path d="M0 0 C3.16717283 1.58358642 4.73268318 2.45263699 6.3125 5.6875 C6.539375 6.450625 6.76625 7.21375 7 8 C3.64379729 6.61122646 1.92701272 5.08322035 0 2 C0 1.34 0 0.68 0 0 Z " fill="#0295AC" transform="translate(160,152)"/>
<path d="M0 0 C0.66 0.99 1.32 1.98 2 3 C1.67 3.99 1.34 4.98 1 6 C-1.31 6 -3.62 6 -6 6 C-3 4 -3 4 -1 3 C-0.67 2.01 -0.34 1.02 0 0 Z " fill="#33CCA0" transform="translate(214,132)"/>
<path d="M0 0 C0.66 0.33 1.32 0.66 2 1 C1.2884375 1.6496875 1.2884375 1.6496875 0.5625 2.3125 C-1.23686957 4.02309613 -1.23686957 4.02309613 -2 7 C-3.32 6.67 -4.64 6.34 -6 6 C-4.02 4.02 -2.04 2.04 0 0 Z " fill="#C2FAE0" transform="translate(190,209)"/>
<path d="M0 0 C0.33 0.99 0.66 1.98 1 3 C2.65 2.67 4.3 2.34 6 2 C6 2.99 6 3.98 6 5 C4.02 5 2.04 5 0 5 C0 3.35 0 1.7 0 0 Z " fill="#ECEAF1" transform="translate(382,209)"/>
<path d="M0 0 C1.20628008 2.33214148 2.1654738 4.49642139 3 7 C2.01 7.33 1.02 7.66 0 8 C-0.38063221 5.6739143 -0.71269945 3.33944736 -1 1 C-0.67 0.67 -0.34 0.34 0 0 Z " fill="#F5EFF7" transform="translate(450,207)"/>
<path d="M0 0 C3.26460973 1.80412643 4.88929795 2.83394693 7 6 C6.01 6.495 6.01 6.495 5 7 C5 6.34 5 5.68 5 5 C3.68 4.67 2.36 4.34 1 4 C0.67 2.68 0.34 1.36 0 0 Z " fill="#BEECF4" transform="translate(137,192)"/>
<path d="M0 0 C0.66 1.32 1.32 2.64 2 4 C2.66 4 3.32 4 4 4 C4 4.66 4 5.32 4 6 C2.35 6 0.7 6 -1 6 C-0.67 4.02 -0.34 2.04 0 0 Z " fill="#E2E2E7" transform="translate(302,189)"/>
<path d="M0 0 C1 1 2 2 3 3 C3.8353125 3.7734375 3.8353125 3.7734375 4.6875 4.5625 C6 6 6 6 6 8 C4.68 7.67 3.36 7.34 2 7 C1.34 4.69 0.68 2.38 0 0 Z " fill="#23BDA8" transform="translate(167,134)"/>
</svg>
