<?xml version="1.0" encoding="UTF-8"?>
<svg version="1.1" xmlns="http://www.w3.org/2000/svg" width="704" height="384">
<path d="M0 0 C1.33173248 -0.00817245 1.33173248 -0.00817245 2.69036865 -0.01651001 C3.43451019 -0.02174179 4.17865173 -0.02697357 4.94534302 -0.03236389 C14.77603041 0.2898124 23.19828777 5.14884542 29.91156006 12.03207397 C35.35493673 18.72029771 38.14409844 24.9820683 38.2020874 33.70492554 C38.21484711 35.01358582 38.22760681 36.32224609 38.24075317 37.67056274 C38.24381172 39.08793997 38.246039 40.5053192 38.24749756 41.92269897 C38.25393372 43.3923251 38.26066268 44.86194997 38.26766968 46.33157349 C38.27961847 49.40804002 38.28335312 52.48439448 38.28216553 55.56088257 C38.28196277 59.47905123 38.30922994 63.39649106 38.34370995 67.31448746 C38.36608845 70.3499371 38.36999971 73.38521458 38.36894608 76.42073822 C38.37128694 77.86386367 38.38002393 79.30699498 38.39561081 80.75003815 C38.52210327 93.67304784 36.34492273 102.35393026 27.28265381 111.83285522 C15.74279384 122.53621793 2.2377401 122.1925767 -12.64703369 122.20004272 C-14.16103648 122.2032621 -15.67503897 122.20662667 -17.18904114 122.21012878 C-20.35188518 122.21609227 -23.51470201 122.21797148 -26.67755127 122.21737671 C-30.7098755 122.21727507 -34.74202375 122.23094187 -38.7743063 122.24814892 C-41.89804369 122.25932028 -45.02173915 122.26129437 -48.14549446 122.26076698 C-49.63129344 122.2619388 -51.1170938 122.2663152 -52.60287285 122.27409935 C-66.06305423 122.33803909 -77.64787896 121.38075516 -87.83843994 111.71957397 C-94.14368337 105.00470917 -98.31705128 97.80435614 -98.37896729 88.4727478 C-98.39172699 87.16401199 -98.40448669 85.85527618 -98.41763306 84.50688171 C-98.42069182 83.08429106 -98.42291899 81.66169842 -98.42437744 80.23910522 C-98.43081168 78.76804985 -98.43754051 77.29699574 -98.44454956 75.82594299 C-98.45650977 72.74350015 -98.46023192 69.66116924 -98.45904541 66.57870483 C-98.45884283 62.65266045 -98.48608665 58.72734488 -98.52058983 54.80147266 C-98.54297112 51.76173186 -98.54687947 48.72216296 -98.54582596 45.68234825 C-98.54816731 44.23643177 -98.5569071 42.79050947 -98.57249069 41.34467506 C-98.68765339 29.55146242 -96.83029663 20.41784846 -89.22125244 11.14535522 C-82.19067486 4.17916023 -75.19547574 0.95428317 -65.45904541 0.82675171 C-64.80152786 0.81685211 -64.14401031 0.80695251 -63.46656799 0.79675293 C-61.2962907 0.76521716 -59.12599219 0.7403887 -56.95562744 0.71566772 C-55.43829826 0.69506836 -53.92097444 0.67407116 -52.40365601 0.6526947 C-48.40611356 0.59753264 -44.40851912 0.54814509 -40.41088867 0.49984741 C-37.17120508 0.45977452 -33.93158172 0.41571908 -30.69195366 0.37141323 C-20.46142321 0.2315956 -10.23093426 0.10624999 0 0 Z " fill="#EFEFF0" transform="translate(247.08843994140625,132.96792602539063)"/>
<path d="M0 0 C6.85530973 4.97464954 11.15102723 12.9587195 15.625 20 C19.73694277 18.62935241 21.06867142 15.76629715 23.375 12.3125 C27.34756218 6.54369315 31.17705016 1.22397492 37.625 -2 C44.37372608 -2.76519013 50.10588926 -2.16801203 55.625 2 C59.86197968 7.32338473 61.04074899 11.69992064 60.97265625 18.36328125 C60.25586788 23.79959756 57.05243889 27.35628249 53.5625 31.375 C48.90388379 33.95210684 43.86122737 34.36530577 38.625 35 C38.625 38.63 38.625 42.26 38.625 46 C41.265 46 43.905 46 46.625 46 C46.625 46.33 46.625 46.66 46.625 47 C43.985 47.33 41.345 47.66 38.625 48 C38.41875 48.845625 38.2125 49.69125 38 50.5625 C35.79393367 56.07766583 32.49976139 60.4300819 27 62.9375 C23.625 64 23.625 64 19.625 64 C19.13 60.535 19.13 60.535 18.625 57 C19.5325 56.7525 20.44 56.505 21.375 56.25 C25.36480634 54.7154591 27.70563798 52.83872404 29.625 49 C29.84967831 47.46331135 30.03296805 45.92031946 30.1875 44.375 C30.27128906 43.55773437 30.35507813 42.74046875 30.44140625 41.8984375 C30.50199219 41.27195313 30.56257813 40.64546875 30.625 40 C25.03999433 40.19898708 25.03999433 40.19898708 20.625 43 C20.16209779 45.66242821 20.16209779 45.66242821 20 48.625 C19.92523438 49.62789062 19.85046875 50.63078125 19.7734375 51.6640625 C19.72445312 52.43492187 19.67546875 53.20578125 19.625 54 C17.96885343 54.38218767 16.30042976 54.71395102 14.625 55 C12.48764735 52.86264735 13.11504051 48.36198992 12.90625 45.46875 C12.89114735 43.0586395 12.89114735 43.0586395 11.625 42 C10.11030552 41.76807135 8.58745438 41.58784762 7.0625 41.4375 C6.23621094 41.35371094 5.40992188 41.26992187 4.55859375 41.18359375 C3.60146484 41.09271484 3.60146484 41.09271484 2.625 41 C2.84209462 45.78693641 3.18289312 49.74107272 5.75 53.875 C6.678125 55.421875 6.678125 55.421875 7.625 57 C7.295 57.99 6.965 58.98 6.625 60 C3.84812716 59.64537771 2.83368995 59.24613432 0.9921875 57.07421875 C0.49976563 56.28660156 0.00734375 55.49898437 -0.5 54.6875 C-0.99757812 53.90761719 -1.49515625 53.12773437 -2.0078125 52.32421875 C-2.45898438 51.55722656 -2.91015625 50.79023438 -3.375 50 C-3.77203125 49.36191406 -4.1690625 48.72382813 -4.578125 48.06640625 C-5.65160834 45.2827166 -5.35062809 43.19527595 -5 40.25 C-4.88914063 39.26515625 -4.77828125 38.2803125 -4.6640625 37.265625 C-4.56867188 36.51796875 -4.47328125 35.7703125 -4.375 35 C-5.0040625 34.98582031 -5.633125 34.97164062 -6.28125 34.95703125 C-13.71747606 34.54266323 -18.88590915 32.82017246 -23.98046875 27.2421875 C-27.71831162 22.06993434 -28.31064809 17.24466251 -27.375 11 C-25.61676111 5.62185751 -22.03724914 2.07808707 -17.375 -1 C-11.46390285 -2.9311154 -5.50432676 -3.09309565 0 0 Z " fill="#FCFBF8" transform="translate(200.375,163)"/>
<path d="M0 0 C1.05562134 0.00858032 1.05562134 0.00858032 2.13256836 0.01733398 C11.35500155 0.33141066 17.60422792 4.26560163 23.97265625 10.75390625 C25.37196385 12.66672123 25.8393658 14.18321201 26.25 16.5 C26.91 15.84 27.57 15.18 28.25 14.5 C28.70632812 14.04882812 29.16265625 13.59765625 29.6328125 13.1328125 C30.81487384 11.93933028 31.97326013 10.7222684 33.1171875 9.4921875 C39.67241486 2.57986604 44.04873022 0.38207911 53.5625 0 C61.43925873 0.17901724 67.138819 1.82579919 73.05078125 7.109375 C74.63598825 8.82438804 75.94968043 10.56171114 77.25 12.5 C77.6625 13.08394531 78.075 13.66789063 78.5 14.26953125 C82.56223366 20.9693958 82.36207366 28.82139425 80.58984375 36.27734375 C77.64981246 44.53743166 72.82159135 50.44689217 65 54.4375 C59.84304268 56.79977082 55.96517377 57.60783347 50.25 57.5 C50.25 54.2 50.25 50.9 50.25 47.5 C50.97445312 47.34144531 51.69890625 47.18289062 52.4453125 47.01953125 C60.08127429 45.17671914 64.5255366 43.40506421 69.125 36.8125 C71.15624177 30.83162147 71.21624538 25.00014456 68.75 19.125 C66.23859496 14.78711857 63.0335965 12.81057438 58.25 11.5 C53.29378173 10.76574544 49.54783774 10.87603955 45 13.0625 C38.32540376 18.97861939 33.40412173 26.26591544 28.25 33.5 C23.54677527 32.00057744 21.91785215 28.16309319 19.5 24.1875 C14.41157141 16.07440202 14.41157141 16.07440202 6.25 11.5 C0.3225293 10.50179747 -4.51028289 11.47708628 -9.75 14.5 C-14.0004842 18.53025185 -15.88668381 22.34875342 -16.125 28.1875 C-16.05194118 33.74808822 -14.49497621 37.40422855 -10.75 41.5 C-6.0570694 45.41271633 -0.63976 46.41265969 5.25 47.5 C5.25 50.8 5.25 54.1 5.25 57.5 C-4.21982227 58.10125856 -10.26249409 55.81939935 -17.5625 49.75 C-23.296452 44.38630319 -26.28340415 38.41925342 -27.0234375 30.6171875 C-27.30346189 21.67794722 -26.0208497 15.1391776 -19.84765625 8.43359375 C-13.84448538 2.91436372 -8.29997774 -0.07844219 0 0 Z " fill="#EC5629" transform="translate(189.75,150.5)"/>
<path d="M0 0 C0.38434943 4.80436782 0.47968712 8.09024857 -1.8125 12.4375 C-4 15 -4 15 -7 17 C-9.6875 17.125 -9.6875 17.125 -12 17 C-11.505 20.465 -11.505 20.465 -11 24 C-3.51614319 21.85604814 1.76075477 19.73552552 6 13 C6.66 11.68 7.32 10.36 8 9 C11.3 9 14.6 9 18 9 C15.94726164 17.21095345 10.09354349 24.44451336 3 29 C-0.04386096 30.33593898 -3.09349411 31.5295557 -6.23046875 32.62890625 C-9.46813346 34.23175578 -10.85700761 36.1442607 -13 39 C-13.66 39 -14.32 39 -15 39 C-15.87785156 37.83210938 -15.87785156 37.83210938 -16.7734375 36.640625 C-19.31012533 33.63220224 -20.93962432 32.97521724 -24.625 31.75 C-32.59913749 28.65002968 -39.15119645 23.50834012 -43.625 16.125 C-45 13 -45 13 -45 10 C-41.7 10 -38.4 10 -35 10 C-34.443125 11.0725 -33.88625 12.145 -33.3125 13.25 C-30.87486997 17.43967661 -28.49677171 20.26441911 -23.6796875 21.68359375 C-21.45924636 22.18823946 -19.24613211 22.62809142 -17 23 C-17.33 21.02 -17.66 19.04 -18 17 C-19.36125 16.6596875 -19.36125 16.6596875 -20.75 16.3125 C-24.6465524 14.7388923 -25.96688822 13.67524052 -28 10 C-28.31543486 6.96775518 -28.23809056 4.03565462 -28 1 C-26.54207116 0.94600264 -25.08357288 0.90720823 -23.625 0.875 C-22.81289062 0.85179687 -22.00078125 0.82859375 -21.1640625 0.8046875 C-19 1 -19 1 -17 3 C-16.5859375 5.6015625 -16.5859375 5.6015625 -16.375 8.625 C-16.30023438 9.62789062 -16.22546875 10.63078125 -16.1484375 11.6640625 C-16.07496094 12.82035156 -16.07496094 12.82035156 -16 14 C-14.68 14 -13.36 14 -12 14 C-11.96261719 13.24074219 -11.92523438 12.48148438 -11.88671875 11.69921875 C-11.82097656 10.70535156 -11.75523437 9.71148437 -11.6875 8.6875 C-11.60048828 7.20830078 -11.60048828 7.20830078 -11.51171875 5.69921875 C-11 3 -11 3 -9.71875 1.15625 C-6.64007513 -0.91485855 -3.61272207 -0.17767486 0 0 Z " fill="#24A585" transform="translate(231,203)"/>
<path d="M0 0 C3.32786806 2.47248734 5.7767313 5.11053726 8.08203125 8.546875 C8.49453125 9.13082031 8.90703125 9.71476563 9.33203125 10.31640625 C13.39426491 17.0162708 13.19410491 24.86826925 11.421875 32.32421875 C8.48184371 40.58430666 3.6536226 46.49376717 -4.16796875 50.484375 C-9.32492607 52.84664582 -13.20279498 53.65470847 -18.91796875 53.546875 C-18.91796875 50.246875 -18.91796875 46.946875 -18.91796875 43.546875 C-18.19351563 43.38832031 -17.4690625 43.22976562 -16.72265625 43.06640625 C-9.08669446 41.22359414 -4.64243215 39.45193921 -0.04296875 32.859375 C1.98827302 26.87849647 2.04827663 21.04701956 -0.41796875 15.171875 C-2.95325779 10.81434696 -6.11110171 8.87954807 -10.91796875 7.546875 C-14.91660491 6.97354114 -18.88209459 6.68140414 -22.91796875 6.546875 C-22.58796875 5.886875 -22.25796875 5.226875 -21.91796875 4.546875 C-13.20642847 3.99628608 -6.71264633 3.66158609 0.08203125 9.546875 C0.86578125 10.10375 1.64953125 10.660625 2.45703125 11.234375 C5.50657655 15.57411254 6.30323383 20.70810856 5.89453125 25.953125 C4.4873309 33.29066968 1.9789045 38.49889046 -4.23046875 42.796875 C-8.000328 45.13119182 -11.78135965 46.96264173 -15.91796875 48.546875 C-15.91796875 48.876875 -15.91796875 49.206875 -15.91796875 49.546875 C-9.96190457 49.13611195 -6.8014055 48.20945256 -1.91796875 44.546875 C-0.80421875 44.051875 -0.80421875 44.051875 0.33203125 43.546875 C2.62388541 42.23724405 2.97704173 40.92196741 4.08203125 38.546875 C4.42363281 37.87527344 4.76523437 37.20367187 5.1171875 36.51171875 C5.45621094 35.84269531 5.79523438 35.17367187 6.14453125 34.484375 C6.48613281 33.81277344 6.82773437 33.14117187 7.1796875 32.44921875 C9.84613727 26.82774239 9.86937656 21.23483774 7.89453125 15.421875 C6.24860365 11.45597326 4.07461861 8.61619537 1.08203125 5.546875 C0.42203125 5.546875 -0.23796875 5.546875 -0.91796875 5.546875 C-0.91796875 4.556875 -0.91796875 3.566875 -0.91796875 2.546875 C-9.50267847 -0.40851687 -16.1732764 -1.87496114 -24.91796875 1.546875 C-26.46484375 1.98 -26.46484375 1.98 -28.04296875 2.421875 C-31.1667398 3.64422019 -32.7406099 5.03453786 -34.91796875 7.546875 C-35.57796875 7.216875 -36.23796875 6.886875 -36.91796875 6.546875 C-27.10694231 -4.33769841 -13.41521867 -7.92009593 0 0 Z " fill="#E08C2E" transform="translate(258.91796875,154.453125)"/>
<path d="M0 0 C1.05562134 0.00858032 1.05562134 0.00858032 2.13256836 0.01733398 C11.35500155 0.33141066 17.60422792 4.26560163 23.97265625 10.75390625 C25.37196385 12.66672123 25.8393658 14.18321201 26.25 16.5 C28.23 14.85 30.21 13.2 32.25 11.5 C31.70773019 15.29588866 30.04872437 16.97211993 27.25 19.5 C26.07460004 18.57347299 24.90989423 17.63336613 23.75 16.6875 C22.77546875 15.90439453 22.77546875 15.90439453 21.78125 15.10546875 C20.25 13.5 20.25 13.5 20.25 10.5 C19.59 10.5 18.93 10.5 18.25 10.5 C16.125 8.625 16.125 8.625 14.25 6.5 C14.25 5.84 14.25 5.18 14.25 4.5 C0.0022748 2.48886588 0.0022748 2.48886588 -12.75390625 7.9765625 C-17.63589787 11.91452259 -20.46518521 15.68628278 -22.75 21.5 C-23.183125 22.469375 -23.61625 23.43875 -24.0625 24.4375 C-24.98430906 28.54374037 -24.90362698 32.43520694 -23.75 36.5 C-22.33459847 38.12899524 -22.33459847 38.12899524 -20.75 39.5 C-19.71986723 41.14821244 -18.71885372 42.81503702 -17.75 44.5 C-15.57157893 47.76763161 -14.1429075 48.64932318 -10.75 50.5 C-9.780625 51.056875 -8.81125 51.61375 -7.8125 52.1875 C-4.52362212 53.59701909 -2.28746276 53.75267591 1.25 53.5 C1.25 52.51 1.25 51.52 1.25 50.5 C0.69570312 50.29503906 0.14140625 50.09007812 -0.4296875 49.87890625 C-1.15414062 49.60949219 -1.87859375 49.34007812 -2.625 49.0625 C-3.34429687 48.79566406 -4.06359375 48.52882812 -4.8046875 48.25390625 C-6.75 47.5 -6.75 47.5 -8.75 46.5 C-8.75 45.84 -8.75 45.18 -8.75 44.5 C-9.3275 44.4175 -9.905 44.335 -10.5 44.25 C-13.46569306 43.26143565 -14.75683627 41.89179647 -16.75 39.5 C-19.7345626 33.47757903 -19.37466677 27.06285701 -18.75 20.5 C-16.66061256 16.01168624 -13.91239004 13.17582217 -9.75 10.5 C-4.00129449 8.81745205 2.3059615 9.41343633 8.25 9.5 C8.25 10.16 8.25 10.82 8.25 11.5 C7.53714844 11.46519531 6.82429688 11.43039063 6.08984375 11.39453125 C-0.04644381 11.22109647 -4.43752698 11.31251619 -9.75 14.5 C-13.99271021 18.54383317 -15.88635223 22.34062966 -16.125 28.1875 C-16.05194118 33.74808822 -14.49497621 37.40422855 -10.75 41.5 C-6.0570694 45.41271633 -0.63976 46.41265969 5.25 47.5 C5.25 50.8 5.25 54.1 5.25 57.5 C-4.21982227 58.10125856 -10.26249409 55.81939935 -17.5625 49.75 C-23.296452 44.38630319 -26.28340415 38.41925342 -27.0234375 30.6171875 C-27.30346189 21.67794722 -26.0208497 15.1391776 -19.84765625 8.43359375 C-13.84448538 2.91436372 -8.29997774 -0.07844219 0 0 Z " fill="#D05653" transform="translate(189.75,150.5)"/>
<path d="M0 0 C8.71154028 -0.55058892 15.20532242 -0.88528891 22 5 C22.78375 5.556875 23.5675 6.11375 24.375 6.6875 C27.4245453 11.02723754 28.22120258 16.16123356 27.8125 21.40625 C26.40529965 28.74379468 23.89687325 33.95201546 17.6875 38.25 C13.91764075 40.58431682 10.1366091 42.41576673 6 44 C6 44.33 6 44.66 6 45 C12.06264222 44.33735914 12.06264222 44.33735914 18 43 C15.54908957 45.68433048 13.71758616 46.91789741 9.95703125 47.09765625 C9.24933594 47.08605469 8.54164063 47.07445312 7.8125 47.0625 C6.554375 47.041875 5.29625 47.02125 4 47 C3.6875 44.6875 3.6875 44.6875 4 42 C6.68270317 39.88635508 9.19115787 38.93743924 12.4375 37.875 C17.87008679 35.67581279 20.49126984 30.01746032 23 25 C23.66656739 19.12109417 23.38968158 13.87289022 20.375 8.69140625 C17.0243262 4.56969671 12.9532649 3.28006372 7.8125 2.54296875 C4.87236335 2.28293308 1.94957475 2.09831916 -1 2 C-0.67 1.34 -0.34 0.68 0 0 Z " fill="#EB8821" transform="translate(237,159)"/>
<path d="M0 0 C0.38434943 4.80436782 0.47968712 8.09024857 -1.8125 12.4375 C-4 15 -4 15 -7 17 C-9.73990408 16.96856707 -12.28417854 16.44521663 -15 16 C-14.01 15.34 -13.02 14.68 -12 14 C-11.52838557 11.44106846 -11.52838557 11.44106846 -11.5 8.5625 C-11.3378509 3.48858438 -11.3378509 3.48858438 -9.73046875 1.1640625 C-6.64254653 -0.91314026 -3.6249327 -0.17827538 0 0 Z " fill="#3EAA8F" transform="translate(231,203)"/>
<path d="M0 0 C3.63 0 7.26 0 11 0 C11.99 1.98 12.98 3.96 14 6 C14.28875 5.195625 14.5775 4.39125 14.875 3.5625 C16 1 16 1 18 0 C19.8521563 -0.09584979 21.70787153 -0.12983606 23.5625 -0.125 C24.55378906 -0.12757813 25.54507813 -0.13015625 26.56640625 -0.1328125 C29 0 29 0 30 1 C29.91015699 2.85772162 29.75388139 4.71247985 29.5625 6.5625 C29.46066406 7.57441406 29.35882813 8.58632812 29.25390625 9.62890625 C29.17011719 10.41136719 29.08632812 11.19382813 29 12 C28.34 12 27.68 12 27 12 C27.33 8.37 27.66 4.74 28 1 C22.41499433 1.19898708 22.41499433 1.19898708 18 4 C17.53709779 6.66242821 17.53709779 6.66242821 17.375 9.625 C17.30023438 10.62789062 17.22546875 11.63078125 17.1484375 12.6640625 C17.09945312 13.43492187 17.05046875 14.20578125 17 15 C15.34385343 15.38218767 13.67542976 15.71395102 12 16 C9.86264735 13.86264735 10.49004051 9.36198992 10.28125 6.46875 C10.26614735 4.0586395 10.26614735 4.0586395 9 3 C7.48530552 2.76807135 5.96245438 2.58784762 4.4375 2.4375 C3.61121094 2.35371094 2.78492188 2.26992187 1.93359375 2.18359375 C1.29550781 2.12300781 0.65742188 2.06242188 0 2 C0 1.34 0 0.68 0 0 Z " fill="#D4FEF5" transform="translate(203,202)"/>
<path d="M0 0 C1.98 0 3.96 0 6 0 C5.319375 0.495 4.63875 0.99 3.9375 1.5 C-3.25199455 7.61871877 -8.57552957 15.33529372 -14 23 C-19.30119118 21.31436778 -21.39891095 16.05565767 -24.11328125 11.5859375 C-26.93219869 7.12484697 -29.45873692 4.68768631 -34 2 C-34 1.67 -34 1.34 -34 1 C-31.8125 0.6875 -31.8125 0.6875 -29 1 C-25.2345795 4.33753181 -22.44978464 7.99985568 -19.6875 12.1875 C-18.99011719 13.23292969 -18.29273438 14.27835938 -17.57421875 15.35546875 C-16 18 -16 18 -16 20 C-12.91767022 18.45883511 -12.01285752 16.02683309 -10.5625 13 C-9.21827222 10.41908267 -8.26414526 8.77193977 -6 7 C-5.34 7 -4.68 7 -4 7 C-3.67 5.68 -3.34 4.36 -3 3 C-2.34 3 -1.68 3 -1 3 C-0.67 2.01 -0.34 1.02 0 0 Z " fill="#CD6147" transform="translate(232,161)"/>
<path d="M0 0 C4.81537657 0.05487609 4.81537657 0.05487609 7.625 2 C12.1875 8.7525 12.1875 8.7525 12.1875 11.3125 C13.5075 11.3125 14.8275 11.3125 16.1875 11.3125 C16.5175 9.9925 16.8475 8.6725 17.1875 7.3125 C19.1675 7.9725 21.1475 8.6325 23.1875 9.3125 C23.1875 11.2925 23.1875 13.2725 23.1875 15.3125 C17.44125254 15.7721998 14.63619274 14.98750704 10.1875 11.3125 C5.1875 6.27302632 5.1875 6.27302632 5.1875 2.3125 C1.8875 2.3125 -1.4125 2.3125 -4.8125 2.3125 C-4.1525 3.59125 -3.4925 4.87 -2.8125 6.1875 C-0.8125 10.0625 -0.8125 10.0625 -0.8125 12.3125 C-3.8125 11.3125 -3.8125 11.3125 -5.8125 8.3125 C-6 4.6875 -6 4.6875 -5.8125 1.3125 C-4.16284831 -0.33715169 -2.2648645 0.06300502 0 0 Z " fill="#D1FAEF" transform="translate(190.8125,210.6875)"/>
<path d="M0 0 C0.72960937 -0.00773438 1.45921875 -0.01546875 2.2109375 -0.0234375 C7.04221499 -0.00618294 11.03981766 0.72563859 15.625 2.25 C15.7075 2.86875 15.79 3.4875 15.875 4.125 C16.86325442 6.92505419 18.02859985 6.99113932 20.625 8.25 C21.75390625 10.3125 21.75390625 10.3125 22.625 12.25 C22.12871094 11.85167969 21.63242187 11.45335937 21.12109375 11.04296875 C11.6700128 3.67220163 4.72432368 2.10582483 -7.375 3.25 C-15.11598553 5.19749478 -21.07728186 11.8034228 -25.375 18.25 C-26.035 18.25 -26.695 18.25 -27.375 18.25 C-27.705 17.26 -28.035 16.27 -28.375 15.25 C-27.385 14.92 -26.395 14.59 -25.375 14.25 C-25.045 13.26 -24.715 12.27 -24.375 11.25 C-23 9.5625 -23 9.5625 -21.375 8.25 C-20.385 8.25 -19.395 8.25 -18.375 8.25 C-18.375 7.59 -18.375 6.93 -18.375 6.25 C-17.715 6.25 -17.055 6.25 -16.375 6.25 C-16.375 5.59 -16.375 4.93 -16.375 4.25 C-15.385 4.25 -14.395 4.25 -13.375 4.25 C-13.375 3.59 -13.375 2.93 -13.375 2.25 C-8.96009147 0.05127085 -4.8311514 -0.05067641 0 0 Z " fill="#FEE7D4" transform="translate(243.375,148.75)"/>
<path d="M0 0 C4.88765533 1.35768204 6.52591098 3.67034421 9 8 C10.66881717 13.0064515 11.09634876 18.32964015 9.05859375 23.29296875 C6.66001601 27.30062372 4.10572562 30.67937247 0 33 C-3.64055393 33.89597791 -7.28518151 34.50555831 -11 35 C-9 32 -9 32 -6.3984375 31.26953125 C-5.40070313 31.11871094 -4.40296875 30.96789062 -3.375 30.8125 C-2.37210938 30.65394531 -1.36921875 30.49539062 -0.3359375 30.33203125 C0.82035156 30.16767578 0.82035156 30.16767578 2 30 C2.33 28.68 2.66 27.36 3 26 C3.99 26 4.98 26 6 26 C6.02716824 23.45826023 6.04691969 20.91681585 6.0625 18.375 C6.07087891 17.66214844 6.07925781 16.94929688 6.08789062 16.21484375 C6.10710296 12.02655562 5.8267327 8.1271538 5 4 C4.01 4 3.02 4 2 4 C2 3.34 2 2.68 2 2 C1.34 2 0.68 2 0 2 C0 1.34 0 0.68 0 0 Z " fill="#FEECC9" transform="translate(251,163)"/>
<path d="M0 0 C1.98 0 3.96 0 6 0 C6.61875 1.670625 6.61875 1.670625 7.25 3.375 C8.44409042 6.37069755 8.44409042 6.37069755 11.125 8.0625 C11.74375 8.371875 12.3625 8.68125 13 9 C13.75 12.125 13.75 12.125 14 15 C10.67280518 14.44546753 7.78577578 13.95004305 5 12 C3.07555275 8.76967782 2 6.78176921 2 3 C1.34 3 0.68 3 0 3 C0 2.01 0 1.02 0 0 Z " fill="#1BA47F" transform="translate(188,214)"/>
<path d="M0 0 C0.66 0 1.32 0 2 0 C1.09365229 4.79521171 -1.47140126 7.7391967 -5 11 C-8.64374135 13.24592678 -11.67063926 14 -16 14 C-16.33 11.69 -16.66 9.38 -17 7 C-15.6696875 6.62875 -15.6696875 6.62875 -14.3125 6.25 C-10.89572865 4.96065232 -8.7202252 3.40019871 -6 1 C-6.1875 3.3125 -6.1875 3.3125 -7 6 C-9.5 7.6875 -9.5 7.6875 -12 9 C-12.33 9.66 -12.66 10.32 -13 11 C-11.02 10.67 -9.04 10.34 -7 10 C-7 9.34 -7 8.68 -7 8 C-6.01 8 -5.02 8 -4 8 C-4 7.01 -4 6.02 -4 5 C-3.34 5 -2.68 5 -2 5 C-1.34 3.35 -0.68 1.7 0 0 Z " fill="#D8FCF6" transform="translate(236,213)"/>
<path d="M0 0 C14.81854039 -0.93656505 14.81854039 -0.93656505 20.51171875 3.4765625 C25.27181477 8.34910174 25.15453756 12.89775109 25.1875 19.4375 C25.13959048 21.62536818 25.0818935 23.81314016 25 26 C24.34 26.33 23.68 26.66 23 27 C23.06960938 25.83984375 23.06960938 25.83984375 23.140625 24.65625 C23.37082821 18.01324309 23.4692253 12.26911505 19 7 C13.2634743 2.27012424 6.13743471 2.23791449 -1 2 C-0.67 1.34 -0.34 0.68 0 0 Z " fill="#E08B3B" transform="translate(237,159)"/>
<path d="M0 0 C2.96175123 0.61277612 4.38058783 1.25372522 7 3 C7.29296875 5.1640625 7.29296875 5.1640625 7.1875 7.625 C7.16042969 8.44226563 7.13335937 9.25953125 7.10546875 10.1015625 C7.07066406 10.72804687 7.03585938 11.35453125 7 12 C4.625 11.6875 4.625 11.6875 2 11 C-0.67927341 6.98108988 -0.15601248 4.75838077 0 0 Z " fill="#11A77E" transform="translate(205,205)"/>
<path d="M0 0 C2.1875 -0.3125 2.1875 -0.3125 5 0 C8.7654205 3.33753181 11.55021536 6.99985568 14.3125 11.1875 C15.00988281 12.23292969 15.70726562 13.27835938 16.42578125 14.35546875 C18 17 18 17 18 19 C18.66 19.33 19.32 19.66 20 20 C18.68 20 17.36 20 16 20 C14.19686121 17.60771685 12.65278672 15.30892451 11.125 12.75 C7.94585239 7.44473474 5.36275075 4.15823805 0 1 C0 0.67 0 0.34 0 0 Z " fill="#D35849" transform="translate(198,162)"/>
<path d="M0 0 C0.99 0.66 1.98 1.32 3 2 C-1.62 2 -6.24 2 -11 2 C-11.33 2.66 -11.66 3.32 -12 4 C-13.051875 4.12375 -14.10375 4.2475 -15.1875 4.375 C-19.45168924 5.07404742 -21.55314015 6.47230277 -25 9 C-26.3232065 9.686547 -27.65478797 10.35763965 -29 11 C-21.13762352 0.39770445 -12.890985 -1.31509456 0 0 Z " fill="#DB7B43" transform="translate(251,151)"/>
<path d="M0 0 C0.66 0.33 1.32 0.66 2 1 C-1.18630573 3.78801751 -4.2872553 4.84617494 -8.29296875 5.9609375 C-9.13794922 6.47527344 -9.13794922 6.47527344 -10 7 C-10.33 8.65 -10.66 10.3 -11 12 C-4.07 11.01 -4.07 11.01 3 10 C-0.43772727 13.43772727 -4.10960984 13.97127774 -8.875 14.125 C-9.90625 14.08375 -10.9375 14.0425 -12 14 C-12 10.7 -12 7.4 -12 4 C-11.21753906 3.79503906 -10.43507812 3.59007812 -9.62890625 3.37890625 C-8.61699219 3.10949219 -7.60507813 2.84007812 -6.5625 2.5625 C-5.55316406 2.29566406 -4.54382813 2.02882812 -3.50390625 1.75390625 C-1.08247999 1.24021923 -1.08247999 1.24021923 0 0 Z " fill="#DC9545" transform="translate(252,194)"/>
<path d="M0 0 C0.89203125 0.01804688 1.7840625 0.03609375 2.703125 0.0546875 C3.71632812 0.08949219 3.71632812 0.08949219 4.75 0.125 C4.75 0.455 4.75 0.785 4.75 1.125 C4.13253906 1.16496094 3.51507813 1.20492187 2.87890625 1.24609375 C-4.24319052 2.12416048 -7.54750617 4.69559742 -12.2421875 10.03125 C-14.1769374 12.04881021 -15.69067267 13.06913401 -18.25 14.125 C-16.68339242 8.3807722 -12.30243002 4.05318111 -7.3515625 0.92578125 C-4.78027705 -0.05398365 -2.74323309 -0.07219034 0 0 Z " fill="#FDE4CF" transform="translate(243.25,160.875)"/>
<path d="M0 0 C0.66 0.33 1.32 0.66 2 1 C4.50207237 8.50621711 2.95945353 16.52958342 1 24 C-0.32 24.33 -1.64 24.66 -3 25 C-2.7834375 24.45214844 -2.566875 23.90429688 -2.34375 23.33984375 C0.42689104 15.45121301 0.29760345 8.26676247 0 0 Z " fill="#FDEAC2" transform="translate(270,169)"/>
<path d="M0 0 C1.79093191 -0.08086147 3.58289628 -0.13912702 5.375 -0.1875 C6.87160156 -0.23970703 6.87160156 -0.23970703 8.3984375 -0.29296875 C9.25695312 -0.19628906 10.11546875 -0.09960938 11 0 C13.67520534 4.01280801 13.03268225 6.81439671 12.77734375 11.50390625 C12.88755859 12.73947266 12.88755859 12.73947266 13 14 C13.99 14.66 14.98 15.32 16 16 C14.35 15.67 12.7 15.34 11 15 C10.93941406 14.21753906 10.87882813 13.43507812 10.81640625 12.62890625 C10.73261719 11.61699219 10.64882812 10.60507813 10.5625 9.5625 C10.48128906 8.55316406 10.40007812 7.54382813 10.31640625 6.50390625 C10.26788532 4.06359221 10.26788532 4.06359221 9 3 C7.48530552 2.76807135 5.96245438 2.58784762 4.4375 2.4375 C3.61121094 2.35371094 2.78492188 2.26992187 1.93359375 2.18359375 C1.29550781 2.12300781 0.65742188 2.06242188 0 2 C0 1.34 0 0.68 0 0 Z " fill="#CDF7EC" transform="translate(203,202)"/>
<path d="M0 0 C2.31 0.66 4.62 1.32 7 2 C7 3.98 7 5.96 7 8 C4.69 8 2.38 8 0 8 C0 5.36 0 2.72 0 0 Z " fill="#E1FBF9" transform="translate(207,218)"/>
<path d="M0 0 C3.10398978 -0.08710289 6.20766548 -0.14042309 9.3125 -0.1875 C10.19357422 -0.21263672 11.07464844 -0.23777344 11.98242188 -0.26367188 C13.25375977 -0.27817383 13.25375977 -0.27817383 14.55078125 -0.29296875 C15.72120972 -0.31653442 15.72120972 -0.31653442 16.9152832 -0.34057617 C19.53135906 0.08680711 20.4137087 0.91420918 22 3 C22 3.66 22 4.32 22 5 C22.928125 5.37125 22.928125 5.37125 23.875 5.75 C26.37480203 7.22047178 26.83316022 8.41403076 28 11 C27.50371094 10.60167969 27.00742187 10.20335937 26.49609375 9.79296875 C17.89691963 3.08659197 10.80966965 1.47139913 0 1 C0 0.67 0 0.34 0 0 Z " fill="#FCE0B8" transform="translate(238,150)"/>
<path d="M0 0 C-2.13301148 3.19951722 -2.51465457 3.42916568 -5.9375 4.5 C-9.06559263 5.48227956 -10.81553017 6.53476759 -13 9 C-13.99 8.67 -14.98 8.34 -16 8 C-13.22818903 3.46430932 -5.55362164 -2.77681082 0 0 Z " fill="#DBFDF7" transform="translate(234,233)"/>
<path d="M0 0 C6.66208562 -0.22043666 12.67536664 -0.25879763 19 2 C21 4.125 21 4.125 22 6 C21.67 6.66 21.34 7.32 21 8 C20.34 8 19.68 8 19 8 C19 7.01 19 6.02 19 5 C12.15531515 2.59721959 12.15531515 2.59721959 5 1.9375 C4.01 1.958125 3.02 1.97875 2 2 C1.34 1.34 0.68 0.68 0 0 Z " fill="#E67E23" transform="translate(239,152)"/>
<path d="M0 0 C3.3 0 6.6 0 10 0 C8.68139111 4.61513112 6.78644563 8.09897612 4 12 C3 10 3 10 3.55859375 8.0546875 C3.84863281 7.33539063 4.13867188 6.61609375 4.4375 5.875 C4.72496094 5.15054688 5.01242188 4.42609375 5.30859375 3.6796875 C5.65083984 2.84824219 5.65083984 2.84824219 6 2 C3.69 2.33 1.38 2.66 -1 3 C-0.67 2.01 -0.34 1.02 0 0 Z " fill="#49A68F" transform="translate(239,212)"/>
<path d="M0 0 C1.2065625 0.0309375 1.2065625 0.0309375 2.4375 0.0625 C2.1075 2.7025 1.7775 5.3425 1.4375 8.0625 C-0.2125 8.3925 -1.8625 8.7225 -3.5625 9.0625 C-3.66015625 2.91015625 -3.66015625 2.91015625 -3.5625 1.0625 C-2.5625 0.0625 -2.5625 0.0625 0 0 Z " fill="#11A581" transform="translate(226.5625,205.9375)"/>
<path d="M0 0 C0.66 0.33 1.32 0.66 2 1 C1.01 1.99 0.02 2.98 -1 4 C-1.66 3.67 -2.32 3.34 -3 3 C-2.01 2.01 -1.02 1.02 0 0 Z M-6 4 C-5.01 4.33 -4.02 4.66 -3 5 C-4.1446875 6.299375 -4.1446875 6.299375 -5.3125 7.625 C-7.75498477 10.55046198 -9.41251338 13.52264835 -11 17 C-11.66283527 18.33524216 -12.32876715 19.66895955 -13 21 C-12.97254366 14.1770992 -12.11674498 10.12157017 -7.27734375 5.1796875 C-6.85582031 4.79039062 -6.43429688 4.40109375 -6 4 Z " fill="#DF413D" transform="translate(178,155)"/>
<path d="M0 0 C4.75 1.875 4.75 1.875 7 3 C7.625 6.0625 7.625 6.0625 8 9 C3.25 8.125 3.25 8.125 1 7 C0.59270772 4.67843403 0.25561323 2.3431213 0 0 Z " fill="#0DA87D" transform="translate(194,220)"/>
<path d="M0 0 C1.07363176 2.63527797 1.09734103 3.74691332 0.0625 6.4375 C-2.68871436 9.85567542 -5.98389262 12.20937888 -10 14 C-10.66 13.67 -11.32 13.34 -12 13 C-11.38511719 12.48050781 -10.77023438 11.96101562 -10.13671875 11.42578125 C-9.32847656 10.72839844 -8.52023438 10.03101563 -7.6875 9.3125 C-6.48673828 8.28576172 -6.48673828 8.28576172 -5.26171875 7.23828125 C-2.98304764 4.98322332 -1.51982357 2.80847657 0 0 Z " fill="#CEF9F1" transform="translate(246,218)"/>
<path d="M0 0 C0.33 0 0.66 0 1 0 C1 3.3 1 6.6 1 10 C6.76542726 8.89430162 12.38472557 7.70899657 18 6 C18 6.66 18 7.32 18 8 C14.06743146 11.05866442 11.08331268 11.33585796 6.1875 11.1875 C4.44533203 11.14689453 4.44533203 11.14689453 2.66796875 11.10546875 C1.78753906 11.07066406 0.90710938 11.03585938 0 11 C0 7.37 0 3.74 0 0 Z " fill="#F7DDB0" transform="translate(239,198)"/>
<path d="M0 0 C1 2 1 2 0.375 4.3125 C-1.26624041 7.52037899 -3.36337053 9.57152549 -6 12 C-6.99 11.67 -7.98 11.34 -9 11 C-7.6618467 6.9855401 -5.23686108 5.64233558 -2 3 C-1.34 2.01 -0.68 1.02 0 0 Z " fill="#FEF3D5" transform="translate(266,194)"/>
<path d="M0 0 C1.670625 0.061875 1.670625 0.061875 3.375 0.125 C0.98926621 2.01713369 -0.69675348 3.14891783 -3.625 4.125 C-3.625 4.455 -3.625 4.785 -3.625 5.125 C2.43764222 4.46235914 2.43764222 4.46235914 8.375 3.125 C5.92408957 5.80933048 4.09258616 7.04289741 0.33203125 7.22265625 C-0.37566406 7.21105469 -1.08335937 7.19945312 -1.8125 7.1875 C-3.6996875 7.1565625 -3.6996875 7.1565625 -5.625 7.125 C-5.75 4.75 -5.75 4.75 -5.625 2.125 C-3.625 0.125 -3.625 0.125 0 0 Z " fill="#EE861B" transform="translate(246.625,198.875)"/>
<path d="M0 0 C0 3.63 0 7.26 0 11 C-1.32 10.67 -2.64 10.34 -4 10 C-4.36814024 3.49618902 -4.36814024 3.49618902 -2.5625 1.0625 C-1 0 -1 0 0 0 Z " fill="#E5FEF9" transform="translate(219,206)"/>
<path d="M0 0 C2.03833424 1.2739589 4.03852126 2.61061923 6 4 C6 4.66 6 5.32 6 6 C7.98 4.35 9.96 2.7 12 1 C11.45773019 4.79588866 9.79872437 6.47211993 7 9 C5.82460004 8.07347299 4.65989423 7.13336613 3.5 6.1875 C2.52546875 5.40439453 2.52546875 5.40439453 1.53125 4.60546875 C0 3 0 3 0 0 Z " fill="#D85A44" transform="translate(210,161)"/>
<path d="M0 0 C0.66 0.33 1.32 0.66 2 1 C0.75796305 2.46512126 -0.49397056 3.92185645 -1.75 5.375 C-2.44609375 6.18710938 -3.1421875 6.99921875 -3.859375 7.8359375 C-5.85949643 9.85795807 -7.39531129 10.93231229 -10 12 C-7.75066455 6.93899525 -4.58147862 3.10886049 0 0 Z " fill="#84879E" transform="translate(164,139)"/>
<path d="M0 0 C2.31 0.33 4.62 0.66 7 1 C6.01 1.495 6.01 1.495 5 2 C5.33 4.31 5.66 6.62 6 9 C3.525 8.01 3.525 8.01 1 7 C0.67 4.69 0.34 2.38 0 0 Z " fill="#2D9D80" transform="translate(214,218)"/>
<path d="M0 0 C0.66 0 1.32 0 2 0 C1.40323978 3.29673633 0.31828226 5.1723181 -1.875 7.6875 C-2.38804687 8.28949219 -2.90109375 8.89148438 -3.4296875 9.51171875 C-5 11 -5 11 -8 12 C-7.67 10.68 -7.34 9.36 -7 8 C-6.01 8 -5.02 8 -4 8 C-4 7.01 -4 6.02 -4 5 C-3.34 5 -2.68 5 -2 5 C-1.34 3.35 -0.68 1.7 0 0 Z " fill="#D2FCF1" transform="translate(236,213)"/>
<path d="M0 0 C0.66 0.33 1.32 0.66 2 1 C0.78192862 2.15762119 -0.45001235 3.3006583 -1.6875 4.4375 C-2.71423828 5.39462891 -2.71423828 5.39462891 -3.76171875 6.37109375 C-6.22289422 8.16221098 -8.00816574 8.62798558 -11 9 C-11 8.34 -11 7.68 -11 7 C-9.20963542 6.0234375 -7.41927083 5.046875 -5.62890625 4.0703125 C-3.83381685 3.08589976 -3.83381685 3.08589976 -3 1 C-2.01 0.67 -1.02 0.34 0 0 Z " fill="#36A389" transform="translate(240,224)"/>
<path d="M0 0 C3.3 0 6.6 0 10 0 C10 0.33 10 0.66 10 1 C7.03 1 4.06 1 1 1 C1.66 2.27875 2.32 3.5575 3 4.875 C5 8.75 5 8.75 5 11 C2 10 2 10 0 7 C-0.07905064 4.66800612 -0.08798769 2.33167378 0 0 Z " fill="#B4E7DB" transform="translate(185,212)"/>
<path d="M0 0 C5.28498887 2.74819421 8.93797347 5.64075202 13 10 C12.67 10.66 12.34 11.32 12 12 C11.566875 11.525625 11.13375 11.05125 10.6875 10.5625 C8.97690387 8.76313043 8.97690387 8.76313043 6 8 C3.8125 6.0625 3.8125 6.0625 2 4 C2 3.34 2 2.68 2 2 C1.34 2 0.68 2 0 2 C0 1.34 0 0.68 0 0 Z " fill="#CC5E57" transform="translate(202,153)"/>
<path d="M0 0 C-0.33 0.66 -0.66 1.32 -1 2 C-3.72265625 2.4140625 -3.72265625 2.4140625 -7.0625 2.625 C-8.16722656 2.69976562 -9.27195313 2.77453125 -10.41015625 2.8515625 C-11.26480469 2.90054688 -12.11945313 2.94953125 -13 3 C-12.67 2.01 -12.34 1.02 -12 0 C-3.42857143 -1.28571429 -3.42857143 -1.28571429 0 0 Z " fill="#EEFDF2" transform="translate(251,210)"/>
<path d="M0 0 C4.99911924 0.47610659 7.97832683 2.03162219 12 5 C11.67 5.99 11.34 6.98 11 8 C10.34 8 9.68 8 9 8 C8.401875 7.21625 7.80375 6.4325 7.1875 5.625 C4.87559356 2.85071227 3.39491889 2.03733633 0 1 C0 0.67 0 0.34 0 0 Z " fill="#41A18B" transform="translate(207,234)"/>
<path d="M0 0 C1.98244892 0.78341119 3.96088859 1.57697486 5.9375 2.375 C7.03964844 2.81585938 8.14179688 3.25671875 9.27734375 3.7109375 C12 5 12 5 13 7 C10.03 6.505 10.03 6.505 7 6 C7 5.34 7 4.68 7 4 C4.03 3.505 4.03 3.505 1 3 C0.67 2.01 0.34 1.02 0 0 Z " fill="#CAF8F0" transform="translate(201,232)"/>
<path d="M0 0 C0.58265625 0.22558594 1.1653125 0.45117188 1.765625 0.68359375 C0.5048238 1.71679188 -0.76840758 2.73483754 -2.046875 3.74609375 C-3.10841797 4.59880859 -3.10841797 4.59880859 -4.19140625 5.46875 C-4.86558594 5.86964844 -5.53976563 6.27054688 -6.234375 6.68359375 C-7.224375 6.35359375 -8.214375 6.02359375 -9.234375 5.68359375 C-8.16544282 4.64769037 -7.07859012 3.63025433 -5.984375 2.62109375 C-5.38109375 2.05261719 -4.7778125 1.48414063 -4.15625 0.8984375 C-2.234375 -0.31640625 -2.234375 -0.31640625 0 0 Z " fill="#FDDAD9" transform="translate(185.234375,162.31640625)"/>
<path d="M0 0 C3.73764507 1.86882253 5.23916443 6.34287996 7 10 C4.13275314 9.42655063 3.1385485 9.1385485 1 7 C0.59952556 4.67724823 0.2602896 2.34260643 0 0 Z " fill="#D34B48" transform="translate(167,189)"/>
<path d="M0 0 C2.31 0.66 4.62 1.32 7 2 C7 3.98 7 5.96 7 8 C4.69 8 2.38 8 0 8 C0 7.67 0 7.34 0 7 C1.98 7 3.96 7 6 7 C5.67 6.01 5.34 5.02 5 4 C2.49552484 2.78130071 2.49552484 2.78130071 0 2 C0 1.34 0 0.68 0 0 Z " fill="#BBF7EA" transform="translate(207,218)"/>
<path d="M0 0 C0.66 0.33 1.32 0.66 2 1 C1.6189482 3.76262553 1.16402868 4.84143894 -0.875 6.8125 C-1.57625 7.204375 -2.2775 7.59625 -3 8 C-3.99 7.67 -4.98 7.34 -6 7 C-4.02 4.69 -2.04 2.38 0 0 Z " fill="#38A586" transform="translate(237,216)"/>
<path d="M0 0 C-2.41805039 2.41805039 -4.92917103 3.52856112 -8 5 C-8.99 5.495 -8.99 5.495 -10 6 C-9.6875 4.125 -9.6875 4.125 -9 2 C-5.5647952 -0.29013653 -4.014669 -0.17842973 0 0 Z " fill="#39A58C" transform="translate(229,233)"/>
<path d="M0 0 C0.33 0 0.66 0 1 0 C1.103125 1.216875 1.20625 2.43375 1.3125 3.6875 C1.76219312 7.41069448 2.78382778 9.91662995 5 13 C3.0625 12.625 3.0625 12.625 1 12 C-0.26237731 9.47524538 -0.09856404 7.68799534 -0.0625 4.875 C-0.05347656 3.96492187 -0.04445312 3.05484375 -0.03515625 2.1171875 C-0.02355469 1.41851562 -0.01195312 0.71984375 0 0 Z " fill="#C8F8EC" transform="translate(202,205)"/>
<path d="M0 0 C1.98 0 3.96 0 6 0 C3.38485683 2.12038635 0.80362384 4.13091744 -2 6 C-2.33 5.01 -2.66 4.02 -3 3 C-2.34 3 -1.68 3 -1 3 C-0.67 2.01 -0.34 1.02 0 0 Z " fill="#DA7141" transform="translate(232,161)"/>
<path d="M0 0 C0.66 0.33 1.32 0.66 2 1 C1.01 2.485 1.01 2.485 0 4 C-1.9453125 4.29296875 -1.9453125 4.29296875 -4.125 4.1875 C-5.40375 4.125625 -6.6825 4.06375 -8 4 C-5.31143836 2.20762558 -3.0466145 1.01553817 0 0 Z " fill="#C8F7ED" transform="translate(232,232)"/>
<path d="M0 0 C1.12377697 3.30435084 0.89554742 5.0506862 -0.4375 8.25 C-0.72496094 8.95640625 -1.01242188 9.6628125 -1.30859375 10.390625 C-1.53675781 10.92171875 -1.76492187 11.4528125 -2 12 C-2.33 12 -2.66 12 -3 12 C-2.88601335 10.37419034 -2.75844341 8.74932843 -2.625 7.125 C-2.55539063 6.22007812 -2.48578125 5.31515625 -2.4140625 4.3828125 C-2 2 -2 2 0 0 Z " fill="#D94745" transform="translate(168,164)"/>
<path d="M0 0 C0.66 0.33 1.32 0.66 2 1 C1.51917969 1.39832031 1.03835937 1.79664063 0.54296875 2.20703125 C-1.37391825 4.43450247 -1.47741643 5.78834669 -1.6875 8.6875 C-1.75324219 9.49574219 -1.81898438 10.30398437 -1.88671875 11.13671875 C-1.92410156 11.75160156 -1.96148437 12.36648437 -2 13 C-2.33 13 -2.66 13 -3 13 C-3.08086147 11.20906809 -3.13912702 9.41710372 -3.1875 7.625 C-3.22230469 6.62726563 -3.25710937 5.62953125 -3.29296875 4.6015625 C-3.14794922 3.31378906 -3.14794922 3.31378906 -3 2 C-2.01 1.34 -1.02 0.68 0 0 Z " fill="#FEFBE9" transform="translate(240,195)"/>
<path d="M0 0 C1.32 0.33 2.64 0.66 4 1 C3.34 2.65 2.68 4.3 2 6 C2.99 6.33 3.98 6.66 5 7 C3.68 7 2.36 7 1 7 C0.67 4.69 0.34 2.38 0 0 Z " fill="#9AE5D6" transform="translate(219,220)"/>
<path d="M0 0 C-0.66 0 -1.32 0 -2 0 C-2 0.66 -2 1.32 -2 2 C-4.35438733 3.42944945 -5.48032433 4.08661261 -8.25 3.625 C-8.8275 3.41875 -9.405 3.2125 -10 3 C-3.375 -1.125 -3.375 -1.125 0 0 Z " fill="#FEFBE9" transform="translate(255,191)"/>
</svg>
